<svg width="48" height="59" viewBox="0 0 48 59" fill="none" xmlns="http://www.w3.org/2000/svg">
<path d="M41.1923 44.25H5.96667C5.31852 44.25 4.79248 43.6993 4.79248 43.0208V6.14583C4.79248 2.75825 7.42736 0 10.6634 0H36.4956C39.7316 0 42.3665 2.75825 42.3665 6.14583V43.0208C42.3665 43.6993 41.8405 44.25 41.1923 44.25ZM7.14086 41.7917H40.0181V6.14583C40.0181 4.11279 38.4377 2.45833 36.4956 2.45833H10.6634C8.72131 2.45833 7.14086 4.11279 7.14086 6.14583V41.7917Z" fill="#06D0D0"/>
<path d="M43.5407 49.1667H3.61827C1.67616 49.1667 0.0957031 47.5123 0.0957031 45.4792C0.0957031 43.4462 1.67616 41.7917 3.61827 41.7917H43.5407C45.4828 41.7917 47.0632 43.4462 47.0632 45.4792C47.0632 47.5123 45.4828 49.1667 43.5407 49.1667ZM3.61827 44.2501C2.97012 44.2501 2.44408 44.8007 2.44408 45.4792C2.44408 46.1577 2.97012 46.7084 3.61827 46.7084H43.5407C44.1888 46.7084 44.7148 46.1577 44.7148 45.4792C44.7148 44.8007 44.1888 44.2501 43.5407 44.2501H3.61827Z" fill="#06D0D0"/>
<path d="M36.496 44.25H23.5799C22.9318 44.25 22.4058 43.6993 22.4058 43.0208V30.7292C22.4058 30.0507 22.9318 29.5 23.5799 29.5H36.496C37.1442 29.5 37.6702 30.0507 37.6702 30.7292V43.0208C37.6702 43.6993 37.1442 44.25 36.496 44.25ZM24.7541 41.7917H35.3218V31.9583H24.7541V41.7917Z" fill="#06D0D0"/>
<path d="M29.4507 31.9583H17.7089C17.0607 31.9583 16.5347 31.4076 16.5347 30.7291V18.4374C16.5347 17.7589 17.0607 17.2083 17.7089 17.2083H29.4507C30.0989 17.2083 30.6249 17.7589 30.6249 18.4374V30.7291C30.6249 31.4076 30.0989 31.9583 29.4507 31.9583ZM18.883 29.4999H28.2765V19.6666H18.883V29.4999Z" fill="#06D0D0"/>
<path d="M23.5795 44.25H10.6634C10.0153 44.25 9.48926 43.6993 9.48926 43.0208V30.7292C9.48926 30.0507 10.0153 29.5 10.6634 29.5H23.5795C24.2277 29.5 24.7537 30.0507 24.7537 30.7292V43.0208C24.7537 43.6993 24.2277 44.25 23.5795 44.25ZM11.8376 41.7917H22.4053V31.9583H11.8376V41.7917Z" fill="#06D0D0"/>
<path d="M23.5799 23.3541C22.9318 23.3541 22.4058 22.8034 22.4058 22.1249V18.4374C22.4058 17.7589 22.9318 17.2083 23.5799 17.2083C24.2281 17.2083 24.7541 17.7589 24.7541 18.4374V22.1249C24.7541 22.8034 24.2281 23.3541 23.5799 23.3541Z" fill="#06D0D0"/>
<path d="M17.7089 35.6458C17.0607 35.6458 16.5347 35.0952 16.5347 34.4167V30.7292C16.5347 30.0507 17.0607 29.5 17.7089 29.5C18.357 29.5 18.883 30.0507 18.883 30.7292V34.4167C18.883 35.0952 18.357 35.6458 17.7089 35.6458Z" fill="#06D0D0"/>
<path d="M29.4506 35.6458C28.8024 35.6458 28.2764 35.0952 28.2764 34.4167V30.7292C28.2764 30.0507 28.8024 29.5 29.4506 29.5C30.0987 29.5 30.6247 30.0507 30.6247 30.7292V34.4167C30.6247 35.0952 30.0987 35.6458 29.4506 35.6458Z" fill="#06D0D0"/>
<path d="M36.4956 7.37508H10.6634C10.0153 7.37508 9.48926 6.82441 9.48926 6.14591C9.48926 5.46741 10.0153 4.91675 10.6634 4.91675H36.4956C37.1437 4.91675 37.6698 5.46741 37.6698 6.14591C37.6698 6.82441 37.1437 7.37508 36.4956 7.37508Z" fill="#06D0D0"/>
<path d="M36.4956 12.2916H10.6634C10.0153 12.2916 9.48926 11.7409 9.48926 11.0624C9.48926 10.3839 10.0153 9.83325 10.6634 9.83325H36.4956C37.1437 9.83325 37.6698 10.3839 37.6698 11.0624C37.6698 11.7409 37.1437 12.2916 36.4956 12.2916Z" fill="#06D0D0"/>
<path d="M36.4954 58.9999H34.1471C32.205 58.9999 30.6245 57.3454 30.6245 55.3124V47.9374C30.6245 47.2589 31.1505 46.7083 31.7987 46.7083H38.8438C39.492 46.7083 40.018 47.2589 40.018 47.9374V55.3124C40.018 57.3454 38.4376 58.9999 36.4954 58.9999ZM32.9729 49.1666V55.3124C32.9729 55.9909 33.4989 56.5416 34.1471 56.5416H36.4954C37.1436 56.5416 37.6696 55.9909 37.6696 55.3124V49.1666H32.9729Z" fill="#06D0D0"/>
<path d="M13.0116 58.9999H10.6632C8.72108 58.9999 7.14062 57.3454 7.14062 55.3124V47.9374C7.14062 47.2589 7.66666 46.7083 8.31481 46.7083H15.3599C16.0081 46.7083 16.5341 47.2589 16.5341 47.9374V55.3124C16.5341 57.3454 14.9537 58.9999 13.0116 58.9999ZM9.489 49.1666V55.3124C9.489 55.9909 10.015 56.5416 10.6632 56.5416H13.0116C13.6597 56.5416 14.1857 55.9909 14.1857 55.3124V49.1666H9.489Z" fill="#06D0D0"/>
<path d="M31.7988 54.0833H15.3602C14.7121 54.0833 14.186 53.5327 14.186 52.8542C14.186 52.1757 14.7121 51.625 15.3602 51.625H31.7988C32.447 51.625 32.973 52.1757 32.973 52.8542C32.973 53.5327 32.447 54.0833 31.7988 54.0833Z" fill="#06D0D0"/>
</svg>
