<svg width="14" height="14" viewBox="0 0 14 14" fill="none" xmlns="http://www.w3.org/2000/svg">
<path d="M6.66669 0C2.98461 0 -0.00012207 2.98467 -0.00012207 6.66667C-0.00012207 10.3487 2.98461 13.3333 6.66669 13.3333C10.3488 13.3333 13.3335 10.3487 13.3335 6.66667C13.3335 2.98467 10.3488 0 6.66669 0ZM6.66669 0.966C8.11905 0.966 9.44475 1.50933 10.4514 2.40333C9.71175 3.379 8.58806 4.02867 7.46204 4.46833C6.82461 3.30745 6.11022 2.19051 5.32366 1.125C5.76357 1.01897 6.21452 0.965592 6.66702 0.966H6.66669ZM4.2413 1.506C4.98465 2.618 5.70467 3.649 6.36235 4.816C4.69898 5.247 2.81927 5.50567 1.0829 5.51C1.44891 3.734 2.64193 2.25933 4.2413 1.50633V1.506ZM11.0838 3.06267C11.9076 4.06932 12.3607 5.32828 12.3675 6.629C11.0488 6.369 9.73742 6.301 8.40206 6.43567C8.25205 6.06133 8.07005 5.70567 7.89571 5.32233C9.04674 4.858 10.2774 4.06333 11.0838 3.06233V3.06267ZM6.82536 5.698C6.96803 6.00133 7.13336 6.32333 7.2887 6.65233C5.43199 7.471 3.45695 8.565 2.43193 10.483C1.44791 9.39409 0.923498 7.96662 0.968565 6.49967C2.95694 6.49033 4.90865 6.24167 6.82536 5.698ZM9.83809 7.25233C10.6677 7.25251 11.4939 7.35893 12.2965 7.569C12.1727 8.34108 11.8914 9.07944 11.4701 9.73816C11.0488 10.3969 10.4964 10.9619 9.84742 11.398C9.54142 10.0063 9.24974 8.67467 8.73407 7.332C9.09955 7.27874 9.46841 7.25201 9.83776 7.252L9.83809 7.25233ZM12.3261 7.35567C12.3221 7.38833 12.3185 7.42033 12.3138 7.45233C12.3185 7.42 12.3225 7.388 12.3261 7.35567ZM7.67938 7.59233C8.20472 8.95 8.61706 10.4533 8.89373 11.9163C8.18945 12.2152 7.43208 12.3687 6.66702 12.3677C5.39961 12.3695 4.16806 11.947 3.16861 11.1677C4.20097 9.493 5.8 8.22567 7.67904 7.59267L7.67938 7.59233Z" fill="white"/>
</svg>
