<svg width="14" height="14" viewBox="0 0 14 14" fill="none" xmlns="http://www.w3.org/2000/svg">
<path d="M6.98376 3.39368C6.03184 3.39368 5.11891 3.77183 4.44579 4.44495C3.77268 5.11807 3.39453 6.03101 3.39453 6.98294C3.39453 7.93488 3.77268 8.84782 4.44579 9.52094C5.11891 10.1941 6.03184 10.5722 6.98376 10.5722C7.93569 10.5722 8.84862 10.1941 9.52174 9.52094C10.1948 8.84782 10.573 7.93488 10.573 6.98294C10.573 6.03101 10.1948 5.11807 9.52174 4.44495C8.84862 3.77183 7.93569 3.39368 6.98376 3.39368ZM6.98376 9.31395C6.36534 9.31395 5.77225 9.06828 5.33496 8.63098C4.89767 8.19369 4.652 7.60059 4.652 6.98217C4.652 6.36374 4.89767 5.77064 5.33496 5.33335C5.77225 4.89605 6.36534 4.65039 6.98376 4.65039C7.60219 4.65039 8.19528 4.89605 8.63257 5.33335C9.06986 5.77064 9.31553 6.36374 9.31553 6.98217C9.31553 7.60059 9.06986 8.19369 8.63257 8.63098C8.19528 9.06828 7.60219 9.31395 6.98376 9.31395Z" fill="white"/>
<path d="M10.7152 4.09847C11.1774 4.09847 11.552 3.72383 11.552 3.2617C11.552 2.79956 11.1774 2.42493 10.7152 2.42493C10.2531 2.42493 9.87842 2.79956 9.87842 3.2617C9.87842 3.72383 10.2531 4.09847 10.7152 4.09847Z" fill="white"/>
<path d="M13.608 2.41096C13.4283 1.94691 13.1537 1.5255 12.8018 1.1737C12.4498 0.821895 12.0283 0.547449 11.5642 0.367931C11.0211 0.164061 10.4474 0.0538243 9.86738 0.0419161C9.11988 0.00931463 8.88313 0 6.98758 0C5.09204 0 4.84908 -7.80749e-08 4.10779 0.0419161C3.52825 0.0532155 2.9549 0.163474 2.41251 0.367931C1.94828 0.54724 1.52665 0.821611 1.17469 1.17344C0.822724 1.52527 0.548193 1.94679 0.368707 2.41096C0.164796 2.95401 0.0548128 3.52782 0.0434686 4.10778C0.0100909 4.85451 0 5.09126 0 6.98758C0 8.88312 -5.78333e-09 9.12453 0.0434686 9.86738C0.055112 10.448 0.16456 11.0208 0.368707 11.565C0.548697 12.029 0.823495 12.4503 1.17554 12.8021C1.52759 13.1539 1.94915 13.4284 2.41329 13.608C2.95465 13.8201 3.52823 13.9382 4.10934 13.9573C4.85684 13.9899 5.09359 14 6.98914 14C8.88468 14 9.12764 14 9.86893 13.9573C10.4489 13.9455 11.0226 13.8355 11.5658 13.6321C12.0298 13.4521 12.4511 13.1774 12.803 12.8255C13.1549 12.4736 13.4296 12.0523 13.6096 11.5883C13.8137 11.0449 13.9232 10.4721 13.9348 9.89144C13.9682 9.14471 13.9783 8.90796 13.9783 7.01164C13.9783 5.11532 13.9783 4.87469 13.9348 4.13185C13.9258 3.54368 13.8152 2.96149 13.608 2.41096ZM12.6626 9.80994C12.6576 10.2573 12.5759 10.7005 12.4212 11.1202C12.3046 11.4221 12.1261 11.6962 11.8973 11.9249C11.6684 12.1536 11.3942 12.3319 11.0923 12.4483C10.6772 12.6024 10.2387 12.684 9.79597 12.6897C9.05855 12.7239 8.85053 12.7324 6.95964 12.7324C5.0672 12.7324 4.87392 12.7324 4.12253 12.6897C3.68003 12.6843 3.24177 12.6027 2.82701 12.4483C2.52404 12.3327 2.24873 12.1547 2.01888 11.9259C1.78903 11.6971 1.60976 11.4226 1.49268 11.1202C1.34011 10.705 1.2585 10.267 1.25128 9.82468C1.2179 9.08727 1.21014 8.87924 1.21014 6.98836C1.21014 5.0967 1.21014 4.90342 1.25128 4.15125C1.25629 3.70416 1.33795 3.26125 1.49268 2.84176C1.72943 2.22932 2.21457 1.74728 2.82701 1.51286C3.24198 1.35928 3.68011 1.27764 4.12253 1.27146C4.86072 1.23808 5.06798 1.22876 6.95964 1.22876C8.8513 1.22876 9.04536 1.22876 9.79597 1.27146C10.2387 1.27678 10.6773 1.35845 11.0923 1.51286C11.3942 1.62951 11.6683 1.80799 11.8972 2.03684C12.126 2.26569 12.3045 2.53986 12.4212 2.84176C12.5737 3.257 12.6553 3.69496 12.6626 4.13728C12.6959 4.87547 12.7045 5.08272 12.7045 6.97438C12.7045 8.86527 12.7045 9.06864 12.6711 9.81071H12.6626V9.80994Z" fill="white"/>
</svg>
