<svg width="16" height="13" viewBox="0 0 16 13" fill="none" xmlns="http://www.w3.org/2000/svg">
<path d="M4.70681 13C3.15712 13.0002 1.63278 12.6086 0.276723 11.8619C0.17313 11.8046 0.0914432 11.7148 0.0443373 11.6065C-0.00276847 11.4983 -0.0126592 11.3775 0.0161997 11.2631C0.0450587 11.1487 0.111054 11.0469 0.203945 10.9736C0.296835 10.9003 0.411428 10.8596 0.529942 10.8578C1.84569 10.8395 3.13676 10.4996 4.28957 9.86796C2.91952 8.74856 1.90531 7.25738 1.37001 5.57537C0.834706 3.89337 0.801332 2.09286 1.27394 0.392337C1.30159 0.293021 1.35745 0.203761 1.43482 0.135278C1.51219 0.0667951 1.60777 0.0219997 1.71009 0.00627113C1.81241 -0.00945739 1.91711 0.00454963 2.01163 0.0466103C2.10614 0.088671 2.18645 0.156997 2.24291 0.243384C2.82487 1.13803 3.58036 1.90805 4.46511 2.50831C5.34985 3.10856 6.34606 3.52698 7.39535 3.73904C7.41353 3.06539 7.64408 2.41449 8.05439 1.87847C8.46469 1.34245 9.03395 0.948473 9.6816 0.752292C10.3292 0.556111 11.0225 0.567668 11.6632 0.785328C12.3038 1.00299 12.8595 1.41572 13.2516 1.96512C13.946 1.91872 14.6314 1.78344 15.2911 1.56262C15.3984 1.52673 15.5144 1.52547 15.6225 1.55903C15.7306 1.59259 15.8252 1.65925 15.893 1.74951C15.9608 1.83977 15.9983 1.94904 16.0001 2.06173C16.0018 2.17442 15.9678 2.28479 15.9029 2.37712C15.3325 3.19014 14.6322 3.90461 13.8297 4.49211C13.6783 6.79823 12.6514 8.96067 10.9572 10.5407C9.26295 12.1207 7.02836 12.9999 4.70681 13ZM2.62674 11.6585C3.30537 11.8382 4.00459 11.9292 4.70681 11.9294C6.79602 11.9293 8.80373 11.1224 10.3073 9.67846C11.8109 8.23451 12.6931 6.26617 12.7681 4.18778C12.7711 4.10437 12.7936 4.0228 12.8339 3.94959C12.8741 3.87638 12.931 3.81356 13 3.76615C13.3501 3.52557 13.6803 3.25759 13.9875 2.96477C13.654 3.01146 13.3183 3.03983 12.9817 3.04975C12.8817 3.0527 12.783 3.02785 12.6964 2.97801C12.6099 2.92816 12.539 2.85529 12.4918 2.76757C12.2386 2.32505 11.8354 1.98678 11.3544 1.81342C10.8734 1.64006 10.346 1.64294 9.86698 1.82156C9.38791 2.00017 8.98844 2.34283 8.74018 2.78809C8.49192 3.23336 8.41112 3.75209 8.51228 4.25128C8.53251 4.33612 8.53164 4.4246 8.50972 4.50902C8.48781 4.59345 8.44552 4.67128 8.38654 4.73574C8.32755 4.8002 8.25364 4.84936 8.17124 4.87893C8.08883 4.90851 8.00042 4.91761 7.91368 4.90545C5.64906 4.63748 3.568 3.53301 2.08233 1.81061C2.03945 2.14837 2.01796 2.48848 2.018 2.82893C2.01799 4.13831 2.33957 5.42783 2.95473 6.58518C3.5699 7.74254 4.45998 8.73263 5.54746 9.46921C5.61986 9.51832 5.6791 9.58429 5.72005 9.66139C5.761 9.73849 5.7824 9.82438 5.7824 9.91159C5.7824 9.9988 5.761 10.0847 5.72005 10.1618C5.6791 10.2389 5.61986 10.3049 5.54746 10.354C4.65906 10.9574 3.67016 11.3991 2.62674 11.6585V11.6585Z" fill="white"/>
</svg>
