<svg width="63" height="55" viewBox="0 0 63 55" fill="none" xmlns="http://www.w3.org/2000/svg">
<path d="M49.7903 44.7097C48.1097 44.7097 46.7419 46.0774 46.7419 47.7581C46.7419 49.4388 48.1097 50.8065 49.7903 50.8065C51.471 50.8065 52.8387 49.4388 52.8387 47.7581C52.8387 46.0774 51.471 44.7097 49.7903 44.7097ZM49.7903 48.7742C49.2294 48.7742 48.7742 48.319 48.7742 47.7581C48.7742 47.1972 49.2294 46.7419 49.7903 46.7419C50.3512 46.7419 50.8065 47.1972 50.8065 47.7581C50.8065 48.319 50.3512 48.7742 49.7903 48.7742Z" fill="white"/>
<path d="M17.2742 44.7097C15.5935 44.7097 14.2258 46.0774 14.2258 47.7581C14.2258 49.4388 15.5935 50.8065 17.2742 50.8065C18.9549 50.8065 20.3226 49.4388 20.3226 47.7581C20.3226 46.0774 18.9549 44.7097 17.2742 44.7097ZM17.2742 48.7742C16.7133 48.7742 16.2581 48.319 16.2581 47.7581C16.2581 47.1972 16.7133 46.7419 17.2742 46.7419C17.8351 46.7419 18.2903 47.1972 18.2903 47.7581C18.2903 48.319 17.8351 48.7742 17.2742 48.7742Z" fill="white"/>
<path d="M60.1914 31.5L58.8359 30.8222L57.455 22.5367C57.0455 20.0757 54.937 18.2903 52.4434 18.2903H41.6613C40.008 18.2903 38.5509 19.0961 37.6232 20.3226H34.5484V10.1613H28.4516V0H14.2258V10.1613H8.12903V20.3226H2.03226V30.4839C0.911468 30.4839 0 31.3953 0 32.5161V34.5484C0 35.6692 0.911468 36.5806 2.03226 36.5806V45.7258C2.03226 47.4065 3.39997 48.7742 5.08065 48.7742H10.2426C10.7385 52.2148 13.6984 54.871 17.2742 54.871C20.85 54.871 23.8099 52.2148 24.3058 48.7742H42.7587C43.2546 52.2148 46.2146 54.871 49.7903 54.871C53.3661 54.871 56.3261 52.2148 56.8219 48.7742H59.9516C61.6323 48.7742 63 47.4065 63 45.7258V36.0441C63 34.1074 61.9239 32.3678 60.1914 31.5ZM60.9677 41.0333L58.9355 40.0172V38.6129H60.9677V41.0333ZM20.3226 22.3548H22.3548V24.3871H20.3226V22.3548ZM24.3871 26.4194V22.3548H26.4194V30.4839H16.2581V22.3548H18.2903V26.4194H24.3871ZM36.5806 30.4839H28.4516V22.3548H30.4839V26.4194H36.5806V30.4839ZM36.5806 23.371V24.3871H32.5161V22.3548H36.6833C36.6162 22.683 36.5806 23.0235 36.5806 23.371ZM32.5161 20.3226H28.4516H26.4194H22.3548V12.1935H24.3871V16.2581H30.4839V12.1935H32.5161V20.3226ZM26.4194 12.1935H28.4516V14.2258H26.4194V12.1935ZM20.3226 2.03226H22.3548V4.06452H20.3226V2.03226ZM16.2581 2.03226H18.2903V6.09677H24.3871V2.03226H26.4194V10.1613H22.3548H20.3226H16.2581V2.03226ZM14.2258 12.1935H16.2581V14.2258H14.2258V12.1935ZM10.1613 12.1935H12.1935V16.2581H18.2903V12.1935H20.3226V20.3226H16.2581H14.2258H10.1613V12.1935ZM8.12903 22.3548H10.1613V24.3871H8.12903V22.3548ZM4.06452 22.3548H6.09677V26.4194H12.1935V22.3548H14.2258V30.4839H4.06452V22.3548ZM2.03226 32.5161H36.5806V34.5484H2.03226V32.5161ZM4.06452 40.6452H7.8435L7.33544 42.6774H4.06452V40.6452ZM4.06452 45.7258V44.7097H8.92263L10.4468 38.6129H4.06452V36.5806H36.5806V46.7419H24.3058C23.8099 43.3013 20.85 40.6452 17.2742 40.6452C13.6984 40.6452 10.7385 43.3013 10.2426 46.7419H5.08065C4.51974 46.7419 4.06452 46.2867 4.06452 45.7258ZM17.2742 52.8387C14.4727 52.8387 12.1935 50.5595 12.1935 47.7581C12.1935 44.9566 14.4727 42.6774 17.2742 42.6774C20.0757 42.6774 22.3548 44.9566 22.3548 47.7581C22.3548 50.5595 20.0757 52.8387 17.2742 52.8387ZM48.7742 30.4839H52.8387V32.5161H51.8226H50.8064C49.6857 32.5161 48.7742 31.6047 48.7742 30.4839ZM48.7742 28.4516C47.6534 28.4516 46.7419 29.3631 46.7419 30.4839C46.7419 31.2277 46.9574 31.9156 47.3069 32.5161H42.6774V24.3871H51.8693L52.6304 28.4516H48.7742ZM42.6774 34.5484H50.8064H51.8226H52.8387V41.3412C51.913 40.9002 50.8816 40.6452 49.7903 40.6452C46.2146 40.6452 43.2546 43.3013 42.7587 46.7419H42.6774V34.5484ZM49.7903 52.8387C46.9889 52.8387 44.7097 50.5595 44.7097 47.7581C44.7097 44.9566 46.9889 42.6774 49.7903 42.6774C52.5918 42.6774 54.871 44.9566 54.871 47.7581C54.871 50.5595 52.5918 52.8387 49.7903 52.8387ZM59.9516 46.7419H56.8219C56.6024 45.2157 55.9013 43.8439 54.871 42.7902V29.4677L53.868 24.0152C53.6892 23.0539 52.8489 22.3548 51.8703 22.3548H42.6774C41.5566 22.3548 40.6452 23.2663 40.6452 24.3871V46.7419H38.6129V23.371C38.6129 21.6903 39.9806 20.3226 41.6613 20.3226H52.4434C53.9402 20.3226 55.2043 21.3946 55.4502 22.87L57.0018 32.1778L59.282 33.3179C60.3215 33.8381 60.9677 34.8827 60.9677 36.0441V36.5806H56.9032V41.2731L60.9677 43.3054V45.7258C60.9677 46.2867 60.5125 46.7419 59.9516 46.7419Z" fill="white"/>
</svg>
