<svg width="74" height="48" viewBox="0 0 74 48" fill="none" xmlns="http://www.w3.org/2000/svg">
<path d="M16.1875 38.1562C15.549 38.1562 15.0312 38.674 15.0312 39.3125C15.0312 39.95 14.5125 40.4688 13.875 40.4688C13.2375 40.4688 12.7188 39.95 12.7188 39.3125C12.7188 38.675 13.2375 38.1562 13.875 38.1562C14.5135 38.1562 15.0312 37.6385 15.0312 37C15.0312 36.3615 14.5135 35.8438 13.875 35.8438C11.9623 35.8438 10.4062 37.3999 10.4062 39.3125C10.4062 41.2251 11.9623 42.7812 13.875 42.7812C15.7877 42.7812 17.3438 41.2251 17.3438 39.3125C17.3438 38.674 16.826 38.1562 16.1875 38.1562Z" fill="white"/>
<path d="M62.4375 38.1562C61.799 38.1562 61.2812 38.674 61.2812 39.3125C61.2812 39.95 60.7625 40.4688 60.125 40.4688C59.4875 40.4688 58.9688 39.95 58.9688 39.3125C58.9688 38.675 59.4875 38.1562 60.125 38.1562C60.7635 38.1562 61.2812 37.6385 61.2812 37C61.2812 36.3615 60.7635 35.8438 60.125 35.8438C58.2123 35.8438 56.6562 37.3999 56.6562 39.3125C56.6562 41.2251 58.2123 42.7812 60.125 42.7812C62.0377 42.7812 63.5938 41.2251 63.5938 39.3125C63.5938 38.674 63.076 38.1562 62.4375 38.1562Z" fill="white"/>
<path d="M74 23.125C74 22.8026 73.8678 22.5112 73.6549 22.3015C73.1604 20.9349 72.1587 19.7875 70.8043 19.1102C70.7681 19.0921 70.7313 19.0761 70.6934 19.0619L66.8722 17.6275L64.5443 8.78288C64.541 8.77016 64.5375 8.75744 64.5336 8.74486C63.7945 6.28075 61.5692 4.625 58.9964 4.625H50.875V2.3125C50.875 1.03745 49.8376 0 48.5625 0H2.3125C1.03745 0 0 1.03745 0 2.3125V34.6875C0 35.9626 1.03745 37 2.3125 37H6.1196C6.00759 37.3749 5.92188 37.761 5.86508 38.1562H1.15625C0.517711 38.1562 0 38.674 0 39.3125C0 39.951 0.517711 40.4688 1.15625 40.4688H5.86522C6.42817 44.3858 9.80486 47.4062 13.875 47.4062C17.9451 47.4062 21.322 44.3858 21.8848 40.4688H24.2812C24.2812 42.3813 25.8373 43.9375 27.75 43.9375H34.6875C36.6002 43.9375 38.1562 42.3813 38.1562 40.4688H52.1152C52.6782 44.3858 56.0549 47.4062 60.125 47.4062C64.1951 47.4062 67.572 44.3858 68.1348 40.4688H72.8438C73.4823 40.4688 74 39.951 74 39.3125C74 38.674 73.4823 38.1562 72.8438 38.1562H68.1348C68.078 37.761 67.9923 37.3749 67.8803 37H71.6875C72.9626 37 74 35.9626 74 34.6875V24.2812C74 24.0095 73.9811 23.7414 73.9446 23.4779C73.9803 23.3667 74 23.2481 74 23.125ZM71.6875 30.0625H70.5312V28.9062H71.6875V30.0625ZM70.8057 21.9688H50.875V19.6562H65.6965L69.8202 21.2042C70.2 21.4018 70.531 21.6625 70.8057 21.9688ZM58.9964 6.9375C60.5339 6.9375 61.8647 7.92306 62.3135 9.39193L64.4063 17.3438H50.875V6.9375H58.9964ZM6.93764 34.6875H2.3125V28.9062H38.1568C38.7954 28.9062 39.3131 28.3885 39.3131 27.75C39.3131 27.1115 38.7954 26.5938 38.1568 26.5938H2.3125V2.3125H48.5625V34.6875H34.6875H27.75H20.8128C20.7173 34.6875 20.6249 34.7004 20.536 34.7222C19.0745 32.6077 16.6344 31.2188 13.875 31.2188C11.1156 31.2188 8.67563 32.6077 7.21399 34.7222C7.12525 34.7004 7.03304 34.6875 6.93764 34.6875ZM13.875 45.0938C10.6872 45.0938 8.09375 42.5003 8.09375 39.3125C8.09375 36.1247 10.6872 33.5312 13.875 33.5312C17.0628 33.5312 19.6562 36.1247 19.6562 39.3125C19.6562 42.5003 17.0628 45.0938 13.875 45.0938ZM21.8848 38.1562C21.828 37.761 21.7423 37.3749 21.6303 37H24.4801C24.3518 37.3619 24.2812 37.751 24.2812 38.1562H21.8848ZM35.8438 40.4688C35.8438 41.1063 35.325 41.625 34.6875 41.625H27.75C27.1125 41.625 26.5938 41.1063 26.5938 40.4688V39.3152C26.5938 39.3142 26.5939 39.3134 26.5939 39.3125C26.5939 39.3116 26.5938 39.3106 26.5938 39.3098V38.1562C26.5938 37.5187 27.1125 37 27.75 37H34.6875C35.325 37 35.8438 37.5187 35.8438 38.1562V40.4688ZM37.9574 37H49.7188H52.3696C52.2576 37.3749 52.1719 37.761 52.1151 38.1562H38.1562C38.1562 37.751 38.0857 37.3619 37.9574 37ZM60.125 45.0938C56.9372 45.0938 54.3438 42.5003 54.3438 39.3125C54.3438 36.1247 56.9372 33.5312 60.125 33.5312C63.3128 33.5312 65.9062 36.1247 65.9062 39.3125C65.9062 42.5003 63.3128 45.0938 60.125 45.0938ZM67.0625 34.6875C66.9671 34.6875 66.8748 34.7004 66.786 34.7222C65.3244 32.6077 62.8844 31.2188 60.125 31.2188C57.3656 31.2188 54.9256 32.6077 53.464 34.7222C53.3752 34.7004 53.283 34.6875 53.1876 34.6875H50.8751V24.2812H71.6876V26.5938H70.5314C69.2563 26.5938 68.2189 27.6312 68.2189 28.9062V30.0625C68.2189 31.3376 69.2563 32.375 70.5314 32.375H71.6876V34.6875H67.0625Z" fill="white"/>
<path d="M28.9062 38.1562C28.6013 38.1562 28.3036 38.2804 28.0882 38.4945C27.8729 38.7098 27.75 39.009 27.75 39.3125C27.75 39.6173 27.8729 39.9152 28.0882 40.1305C28.3036 40.3458 28.6013 40.4688 28.9062 40.4688C29.2112 40.4688 29.5089 40.3458 29.7243 40.1305C29.9396 39.9152 30.0625 39.6159 30.0625 39.3125C30.0625 39.0088 29.9396 38.7098 29.7243 38.4945C29.5089 38.2804 29.2112 38.1562 28.9062 38.1562Z" fill="white"/>
<path d="M42.7819 28.9062H45.0938C45.7323 28.9062 46.25 28.3885 46.25 27.75C46.25 27.1115 45.7323 26.5938 45.0938 26.5938H42.7819C42.1433 26.5938 41.6256 27.1115 41.6256 27.75C41.6256 28.3885 42.1432 28.9062 42.7819 28.9062Z" fill="white"/>
</svg>
