<svg width="78" height="42" viewBox="0 0 78 42" fill="none" xmlns="http://www.w3.org/2000/svg">
<path d="M14.5881 34.1932H14.5758C13.9448 34.1932 13.4395 34.7047 13.4395 35.3358C13.4395 35.9668 13.9571 36.4783 14.5881 36.4783C15.2191 36.4783 15.7307 35.9668 15.7307 35.3358C15.7307 34.7047 15.2191 34.1932 14.5881 34.1932Z" fill="white"/>
<path d="M24.3578 34.1932H24.3456C23.7146 34.1932 23.2091 34.7047 23.2091 35.3358C23.2091 35.9668 23.7268 36.4783 24.3578 36.4783C24.9888 36.4783 25.5004 35.9668 25.5004 35.3358C25.5004 34.7047 24.9888 34.1932 24.3578 34.1932Z" fill="white"/>
<path d="M64.6576 34.1932H64.6454C64.0144 34.1932 63.5089 34.7047 63.5089 35.3358C63.5089 35.9668 64.0266 36.4783 64.6576 36.4783C65.2886 36.4783 65.8002 35.9668 65.8002 35.3358C65.8002 34.7047 65.2886 34.1932 64.6576 34.1932Z" fill="white"/>
<path d="M76.95 20.3792L75.4138 18.843L72.3189 9.55822C72.7807 9.41151 73.1154 8.97962 73.1154 8.46942C73.1154 7.83841 72.6038 7.32683 71.9728 7.32683H60.9033V2.36377C60.9033 1.06031 59.843 0 58.5396 0H2.36377C1.06031 0 0 1.06047 0 2.36377V29.2303C0 30.5337 1.06031 31.594 2.36377 31.594H3.66357V34.1144C3.66357 35.4179 4.72388 36.4782 6.02734 36.4782H8.65847C9.19412 39.2569 11.643 41.3629 14.5758 41.3629C16.584 41.3629 18.3648 40.3748 19.4606 38.8602C20.5565 40.3748 22.3373 41.3629 24.3455 41.3629C27.2783 41.3629 29.7274 39.2569 30.2628 36.4782H58.728C59.2637 39.2569 61.7126 41.3629 64.6454 41.3629C67.9689 41.3629 70.6727 38.659 70.6727 35.3356C70.6727 35.3094 70.671 35.2836 70.6707 35.2576H75.6362C76.9397 35.2576 78 34.1973 78 32.8938V22.9141C78.0002 21.9566 77.6272 21.0564 76.95 20.3792ZM8.65847 34.1932H6.02734C5.98392 34.1932 5.94873 34.158 5.94873 34.1146V31.5942H9.85559C9.2645 32.3385 8.8451 33.2246 8.65847 34.1932ZM14.5758 39.0781C12.5123 39.0781 10.8336 37.3992 10.8336 35.3359C10.8336 33.2803 12.4998 31.607 14.5525 31.5942H14.5994C16.6521 31.6068 18.3183 33.2802 18.3183 35.3359C18.3182 37.3992 16.6393 39.0781 14.5758 39.0781ZM24.3456 39.0781C22.2821 39.0781 20.6033 37.3992 20.6033 35.3359C20.6033 33.2803 22.2695 31.607 24.3222 31.5942H24.3691C26.4218 31.6068 28.088 33.2802 28.088 35.3359C28.0878 37.3992 26.4091 39.0781 24.3456 39.0781ZM58.7282 34.1932H30.263C30.0764 33.2246 29.657 32.3384 29.0657 31.594H51.2121C51.8431 31.594 52.3547 31.0825 52.3547 30.4514C52.3547 29.8204 51.8431 29.3089 51.2121 29.3089H2.36377C2.32035 29.3089 2.28516 29.2737 2.28516 29.2303V2.36377C2.28516 2.32035 2.32035 2.28516 2.36377 2.28516H58.5394C58.5828 2.28516 58.618 2.32035 58.618 2.36377V29.309H56.0975C55.4665 29.309 54.9549 29.8206 54.9549 30.4516C54.9549 31.0826 55.4665 31.5942 56.0975 31.5942H59.9253C59.334 32.3385 58.9148 33.2246 58.7282 34.1932ZM73.237 19.5387H65.8667C65.8233 19.5387 65.7881 19.5035 65.7881 19.4601V14.4966H71.5563L73.237 19.5387ZM64.6455 39.0781C62.582 39.0781 60.9033 37.3992 60.9033 35.3359C60.9033 33.2803 62.5695 31.607 64.6222 31.5942H64.6457C64.6483 31.5942 64.6509 31.5939 64.6536 31.5937C66.7134 31.598 68.388 33.275 68.388 35.3357C68.3877 37.3992 66.709 39.0781 64.6455 39.0781ZM75.715 32.8941C75.715 32.9375 75.6798 32.9727 75.6364 32.9727H70.1898C69.2689 30.8206 67.1307 29.3086 64.6455 29.3086C64.6376 29.3086 64.63 29.3092 64.6221 29.3092H60.9033V9.69106V9.69045C60.9033 9.64703 60.9385 9.61184 60.9819 9.61184H69.9281L70.7946 12.2114H64.6455C64.0145 12.2114 63.5029 12.723 63.5029 13.354V19.4601C63.5029 20.7636 64.5633 21.8239 65.8667 21.8239H75.163L75.3343 21.9951C75.5797 22.2407 75.715 22.567 75.715 22.9142V25.6454H74.4152C73.7842 25.6454 73.2726 26.157 73.2726 26.788C73.2726 27.419 73.7842 27.9306 74.4152 27.9306H75.715V32.8941Z" fill="white"/>
<path d="M54.8757 24.4241H6.02735C5.39634 24.4241 4.88477 24.9357 4.88477 25.5667C4.88477 26.1977 5.39634 26.7093 6.02735 26.7093H54.8757C55.5067 26.7093 56.0183 26.1977 56.0183 25.5667C56.0183 24.9357 55.5067 24.4241 54.8757 24.4241Z" fill="white"/>
</svg>
