<svg width="75" height="48" viewBox="0 0 75 48" fill="none" xmlns="http://www.w3.org/2000/svg">
<path d="M72.6584 26.4751L69.3472 25.4226V15.567C69.3472 14.0008 68.073 12.7266 66.5068 12.7266H59.2388C58.636 12.7266 58.1475 13.2152 58.1475 13.8179C58.1475 14.4206 58.636 14.9092 59.2388 14.9092H66.5068C66.8694 14.9092 67.1646 15.2042 67.1646 15.567V17.1076H59.0898C56.8812 17.1076 55.0843 18.9044 55.0843 21.1131V23.3065C55.0843 25.5152 56.8813 27.312 59.0898 27.312H68.0867L71.9974 28.5552C72.1871 28.6153 72.3145 28.7895 72.3145 28.9885V30.6948H71.268C70.6652 30.6948 70.1767 31.1833 70.1767 31.7861C70.1767 32.389 70.6652 32.8774 71.268 32.8774H72.3145V34.2783C72.3145 34.5292 72.1105 34.7332 71.8595 34.7332H68.0695C66.639 31.5903 63.497 29.5074 59.9673 29.5074C56.4434 29.5074 53.298 31.5852 51.8652 34.7332H48.7064C48.7064 29.6797 48.7064 25.4616 48.7064 20.3675C48.7064 17.3579 51.155 14.9093 54.1646 14.9093H54.8757C55.4785 14.9093 55.967 14.4207 55.967 13.818C55.967 13.2153 55.4785 12.7267 54.8757 12.7267H54.1646C49.9515 12.7267 46.5239 16.1544 46.5239 20.3675V22.2652H44.1447C42.9156 22.2652 41.9157 23.2652 41.9157 24.4943V30.695H34.6147V28.9255H36.3557C36.7207 28.9255 37.0617 28.743 37.2639 28.4392L49.0613 10.7288H50.2792C51.1553 10.7288 51.9886 10.3973 52.6255 9.79568L55.89 6.71141L60.8274 5.21242C61.2872 5.07288 61.6017 4.64874 61.6017 4.16813V1.09129C61.6017 0.488605 61.1132 0 60.5104 0H54.4022C53.5258 0 52.6925 0.33146 52.0558 0.933123L48.9205 3.89575H34.2645C33.6617 3.89575 33.1732 4.38435 33.1732 4.98704C33.1732 5.58972 33.6617 6.07832 34.2645 6.07832H49.3547C49.6334 6.07832 49.9016 5.97167 50.1041 5.78033L53.5551 2.51956C53.785 2.30232 54.0859 2.18272 54.4024 2.18272H59.4192V3.35913L55.0103 4.69763C54.8488 4.74666 54.7006 4.83265 54.5778 4.94862L51.1266 8.20924C50.8967 8.42663 50.5958 8.54623 50.2793 8.54623C49.1044 8.54623 13.6464 8.54623 10.201 8.54623C9.89183 8.54623 9.59733 8.67733 9.39042 8.90694L4.33165 14.5205C3.86138 15.0423 3.08016 15.0539 2.58894 14.6113C2.08331 14.1557 2.04271 13.3739 2.498 12.8685L8.24951 6.48588C8.48305 6.22674 8.81727 6.07803 9.16634 6.07803H29.9011C30.5039 6.07803 30.9924 5.58943 30.9924 4.98674C30.9924 4.38406 30.5039 3.89546 29.9011 3.89546H9.16634C8.20004 3.89546 7.27492 4.30709 6.6283 5.02487L0.876634 11.4074C-0.384166 12.8069 -0.271545 14.9714 1.12778 16.2325C2.53408 17.4997 4.69512 17.3775 5.95301 15.9815L6.0697 15.8522L7.45549 17.5351V30.6947H6.86896C4.58235 30.6947 2.5012 31.9523 1.43756 33.9766L0.733458 35.3168C0.555651 35.6551 0.567873 36.0616 0.765614 36.3887C0.96321 36.7157 1.31751 36.9156 1.69961 36.9156H8.16483C8.08276 37.4006 8.03751 37.8979 8.03751 38.4059C8.03751 43.3084 12.0322 47.3045 16.9363 47.3045C21.8389 47.3045 25.8349 43.3098 25.8349 38.4059C25.8349 37.8979 25.7898 37.4006 25.7076 36.9156H29.0327V38.5373C29.0327 39.8484 30.0993 40.915 31.4103 40.915H33.5236C34.1264 40.915 34.6149 40.4265 34.6149 39.8237C34.6149 39.2208 34.1264 38.7324 33.5236 38.7324H31.4101C31.3026 38.7324 31.2151 38.6448 31.2151 38.5373V36.9156H43.6138V38.5373C43.6138 38.6448 43.5263 38.7324 43.4188 38.7324H37.8865C37.2837 38.7324 36.7952 39.2208 36.7952 39.8237C36.7952 40.4265 37.2837 40.915 37.8865 40.915H43.4188C44.7298 40.915 45.7963 39.8484 45.7963 38.5373V36.9156H51.1959C51.1137 37.4006 51.0686 37.8979 51.0686 38.4059C51.0686 43.3085 55.0632 47.3045 59.9672 47.3045C64.8698 47.3045 68.8658 43.3098 68.8658 38.4059C68.8658 37.8979 68.8207 37.4006 68.7385 36.9156H71.8592C73.3135 36.9156 74.4967 35.7325 74.4967 34.2782V28.9885C74.497 27.8342 73.7579 26.8243 72.6584 26.4751ZM57.2669 23.3064V21.1129C57.2669 20.1078 58.0847 19.29 59.0898 19.29H67.1646V25.1294H59.0898C58.0847 25.1294 57.2669 24.3115 57.2669 23.3064ZM44.0984 24.4939C44.0984 24.4681 44.1194 24.4473 44.1448 24.4473H46.524V30.6947H44.0984V24.4939ZM32.4323 30.6947H21.3687C21.1472 30.5668 20.9201 30.4479 20.6871 30.3392V28.9252H32.4323V30.6947ZM23.4642 39.4972H23.5622C23.3915 40.5365 22.9814 41.4955 22.3907 42.317L22.3239 42.2503C21.8976 41.8242 21.2067 41.8242 20.7805 42.2503C20.3544 42.6766 20.3544 43.3675 20.7805 43.7936L20.8473 43.8604C20.0258 44.4512 19.0668 44.8613 18.0274 45.0319V44.934C18.0274 44.3311 17.539 43.8427 16.9362 43.8427C16.3333 43.8427 15.8449 44.3311 15.8449 44.934V45.0319C14.8055 44.8613 13.8465 44.4512 13.025 43.8604L13.0918 43.7936C13.518 43.3673 13.518 42.6764 13.0918 42.2503C12.6654 41.8242 11.9746 41.8242 11.5484 42.2503L11.4816 42.317C10.8909 41.4955 10.4807 40.5364 10.31 39.4972H10.4081C11.0109 39.4972 11.4994 39.0087 11.4994 38.4059C11.4994 37.803 11.0109 37.3146 10.4081 37.3146H10.31C10.4807 36.2752 10.8907 35.3162 11.4816 34.4947L11.5484 34.5616C11.9749 34.9878 12.6656 34.9877 13.0918 34.5616C13.518 34.1353 13.518 33.4444 13.0918 33.0183L13.025 32.9515C13.8465 32.3607 14.8055 31.9507 15.8449 31.78V31.8779C15.8449 32.4808 16.3333 32.9692 16.9362 32.9692C17.539 32.9692 18.0274 32.4808 18.0274 31.8779V31.78C19.0668 31.9506 20.0258 32.3607 20.8473 32.9515L20.7805 33.0183C20.3544 33.4446 20.3544 34.1354 20.7805 34.5616C20.9937 34.7747 21.2731 34.8812 21.5523 34.8812C21.8315 34.8812 22.1109 34.7747 22.3241 34.5616L22.3908 34.4949C22.9816 35.3164 23.3918 36.2754 23.5623 37.3147H23.4644C22.8616 37.3147 22.3731 37.8032 22.3731 38.406C22.3731 39.0089 22.8614 39.4972 23.4642 39.4972ZM25.9125 10.7284L16.9164 25.5911C15.5601 23.944 14.1963 22.2879 12.8155 20.6109L18.7478 10.7285H25.9125V10.7284ZM35.6584 10.7284L26.0452 26.7425C24.6779 26.7425 20.2889 26.7425 18.7707 26.7425L28.4639 10.7284H35.6584ZM16.5071 28.5275C16.7144 28.7793 17.0235 28.9251 17.3495 28.9251H18.5046V29.6484C17.995 29.5573 17.4715 29.5071 16.9362 29.5071C15.6627 29.5071 14.452 29.7779 13.3556 30.2618V24.7002L16.5071 28.5275ZM35.7715 26.7426C34.2597 26.7426 30.1019 26.7426 28.591 26.7426L38.204 10.7285H46.4389L35.7715 26.7426ZM10.6867 10.7284H16.2022L11.3432 18.8227C9.92879 17.1048 8.81684 15.7547 7.54716 14.2125L10.6867 10.7284ZM9.63792 20.1856L11.173 22.0498V30.6947H9.63792V20.1856ZM3.51784 34.733C4.23736 33.5812 5.49554 32.8773 6.86867 32.8773H9.97084C9.52006 33.444 9.13724 34.0665 8.83386 34.733H3.51784ZM25.0382 34.733C24.7348 34.0665 24.3521 33.444 23.9013 32.8773H46.524V34.733C43.9128 34.733 27.2842 34.733 25.0382 34.733ZM66.4954 39.4972H66.5933C66.4227 40.5365 66.0126 41.4955 65.4219 42.317L65.3551 42.2503C64.9288 41.8242 64.2379 41.8242 63.8117 42.2503C63.3855 42.6766 63.3855 43.3675 63.8117 43.7936L63.8785 43.8604C63.057 44.4512 62.098 44.8613 61.0586 45.0319V44.934C61.0586 44.3311 60.5702 43.8427 59.9673 43.8427C59.3645 43.8427 58.8761 44.3311 58.8761 44.934V45.0319C57.8367 44.8612 56.8777 44.4512 56.0562 43.8604L56.123 43.7936C56.5491 43.3673 56.5491 42.6764 56.123 42.2503C55.6966 41.8242 55.0058 41.8242 54.5796 42.2503L54.5128 42.317C53.9221 41.4955 53.512 40.5365 53.3413 39.4972H53.4393C54.0421 39.4972 54.5306 39.0087 54.5306 38.4059C54.5306 37.803 54.0421 37.3146 53.4393 37.3146H53.3413C53.5119 36.2752 53.9221 35.3162 54.5128 34.4947L54.5796 34.5615C54.7928 34.7745 55.0721 34.881 55.3513 34.881C55.6306 34.881 55.9099 34.7745 56.1231 34.5615C56.5493 34.1352 56.5493 33.4443 56.1231 33.0181L56.0563 32.9513C56.8778 32.3606 57.8369 31.9504 58.8762 31.7799V31.8778C58.8762 32.4806 59.3647 32.9691 59.9675 32.9691C60.5703 32.9691 61.0588 32.4806 61.0588 31.8778V31.7799C62.0981 31.9504 63.0571 32.3606 63.8787 32.9513L63.8119 33.0181C63.3857 33.4445 63.3857 34.1353 63.8119 34.5615C64.025 34.7745 64.3044 34.881 64.5836 34.881C64.8629 34.881 65.1422 34.7745 65.3554 34.5615L65.4222 34.4947C66.0129 35.3162 66.4231 36.2752 66.5936 37.3146H66.4957C65.8929 37.3146 65.4044 37.803 65.4044 38.4059C65.4044 39.0087 65.8927 39.4972 66.4954 39.4972Z" fill="white"/>
<path d="M59.9673 34.8214C57.9908 34.8214 56.3828 36.4293 56.3828 38.4058C56.3828 40.3823 57.9908 41.9902 59.9673 41.9902C61.9438 41.9902 63.5517 40.3823 63.5517 38.4058C63.5517 36.4293 61.9438 34.8214 59.9673 34.8214ZM59.9673 39.8077C59.1943 39.8077 58.5653 39.1788 58.5653 38.4058C58.5653 37.6327 59.1942 37.0039 59.9673 37.0039C60.7403 37.0039 61.3692 37.6327 61.3692 38.4058C61.3692 39.1788 60.7403 39.8077 59.9673 39.8077Z" fill="white"/>
<path d="M16.9362 34.8214C14.9597 34.8214 13.3516 36.4293 13.3516 38.4058C13.3516 40.3823 14.9597 41.9902 16.9362 41.9902C18.9127 41.9902 20.5206 40.3823 20.5206 38.4058C20.5206 36.4293 18.9127 34.8214 16.9362 34.8214ZM16.9362 39.8077C16.1631 39.8077 15.5341 39.1788 15.5341 38.4058C15.5341 37.6327 16.163 37.0039 16.9362 37.0039C17.7091 37.0039 18.3381 37.6327 18.3381 38.4058C18.3381 39.1788 17.7091 39.8077 16.9362 39.8077Z" fill="white"/>
</svg>
