<svg width="89" height="27" viewBox="0 0 89 27" fill="none" xmlns="http://www.w3.org/2000/svg">
<path d="M4.225 17.225H9.975V20H0.725V2.55H4.225V17.225ZM18.3496 20.225C17.0163 20.225 15.8163 19.9333 14.7496 19.35C13.6829 18.75 12.8413 17.9083 12.2246 16.825C11.6246 15.7417 11.3246 14.4917 11.3246 13.075C11.3246 11.6583 11.6329 10.4083 12.2496 9.325C12.8829 8.24167 13.7413 7.40833 14.8246 6.825C15.9079 6.225 17.1163 5.925 18.4496 5.925C19.7829 5.925 20.9913 6.225 22.0746 6.825C23.1579 7.40833 24.0079 8.24167 24.6246 9.325C25.2579 10.4083 25.5746 11.6583 25.5746 13.075C25.5746 14.4917 25.2496 15.7417 24.5996 16.825C23.9663 17.9083 23.0996 18.75 21.9996 19.35C20.9163 19.9333 19.6996 20.225 18.3496 20.225ZM18.3496 17.175C18.9829 17.175 19.5746 17.025 20.1246 16.725C20.6913 16.4083 21.1413 15.9417 21.4746 15.325C21.8079 14.7083 21.9746 13.9583 21.9746 13.075C21.9746 11.7583 21.6246 10.75 20.9246 10.05C20.2413 9.33333 19.3996 8.975 18.3996 8.975C17.3996 8.975 16.5579 9.33333 15.8746 10.05C15.2079 10.75 14.8746 11.7583 14.8746 13.075C14.8746 14.3917 15.1996 15.4083 15.8496 16.125C16.5163 16.825 17.3496 17.175 18.3496 17.175ZM33.567 5.925C34.6003 5.925 35.5087 6.13333 36.292 6.55C37.0753 6.95 37.692 7.475 38.142 8.125V6.15H41.667V20.1C41.667 21.3833 41.4087 22.525 40.892 23.525C40.3753 24.5417 39.6003 25.3417 38.567 25.925C37.5337 26.525 36.2837 26.825 34.817 26.825C32.8503 26.825 31.2337 26.3667 29.967 25.45C28.717 24.5333 28.0087 23.2833 27.842 21.7H31.317C31.5003 22.3333 31.892 22.8333 32.492 23.2C33.1087 23.5833 33.8503 23.775 34.717 23.775C35.7337 23.775 36.5587 23.4667 37.192 22.85C37.8253 22.25 38.142 21.3333 38.142 20.1V17.95C37.692 18.6 37.067 19.1417 36.267 19.575C35.4837 20.0083 34.5837 20.225 33.567 20.225C32.4003 20.225 31.3337 19.925 30.367 19.325C29.4003 18.725 28.6337 17.8833 28.067 16.8C27.517 15.7 27.242 14.4417 27.242 13.025C27.242 11.625 27.517 10.3833 28.067 9.3C28.6337 8.21667 29.392 7.38333 30.342 6.8C31.3087 6.21667 32.3837 5.925 33.567 5.925ZM38.142 13.075C38.142 12.225 37.9753 11.5 37.642 10.9C37.3087 10.2833 36.8587 9.81667 36.292 9.5C35.7253 9.16667 35.117 9 34.467 9C33.817 9 33.217 9.15833 32.667 9.475C32.117 9.79167 31.667 10.2583 31.317 10.875C30.9837 11.475 30.817 12.1917 30.817 13.025C30.817 13.8583 30.9837 14.5917 31.317 15.225C31.667 15.8417 32.117 16.3167 32.667 16.65C33.2337 16.9833 33.8337 17.15 34.467 17.15C35.117 17.15 35.7253 16.9917 36.292 16.675C36.8587 16.3417 37.3087 15.875 37.642 15.275C37.9753 14.6583 38.142 13.925 38.142 13.075ZM46.8604 4.5C46.2437 4.5 45.727 4.30833 45.3104 3.925C44.9104 3.525 44.7104 3.03333 44.7104 2.45C44.7104 1.86667 44.9104 1.38333 45.3104 0.999999C45.727 0.599999 46.2437 0.399999 46.8604 0.399999C47.477 0.399999 47.9854 0.599999 48.3854 0.999999C48.802 1.38333 49.0104 1.86667 49.0104 2.45C49.0104 3.03333 48.802 3.525 48.3854 3.925C47.9854 4.30833 47.477 4.5 46.8604 4.5ZM48.5854 6.15V20H45.0854V6.15H48.5854Z" fill="#334B70"/>
<path d="M57.3434 20.225C56.21 20.225 55.1934 20.025 54.2934 19.625C53.3934 19.2083 52.6767 18.65 52.1434 17.95C51.6267 17.25 51.3434 16.475 51.2934 15.625H54.8184C54.885 16.1583 55.1434 16.6 55.5934 16.95C56.06 17.3 56.635 17.475 57.3184 17.475C57.985 17.475 58.5017 17.3417 58.8684 17.075C59.2517 16.8083 59.4434 16.4667 59.4434 16.05C59.4434 15.6 59.21 15.2667 58.7434 15.05C58.2934 14.8167 57.5684 14.5667 56.5684 14.3C55.535 14.05 54.685 13.7917 54.0184 13.525C53.3684 13.2583 52.8017 12.85 52.3184 12.3C51.8517 11.75 51.6184 11.0083 51.6184 10.075C51.6184 9.30833 51.835 8.60833 52.2684 7.975C52.7184 7.34167 53.3517 6.84167 54.1684 6.475C55.0017 6.10833 55.9767 5.925 57.0934 5.925C58.7434 5.925 60.06 6.34167 61.0434 7.175C62.0267 7.99167 62.5684 9.1 62.6684 10.5H59.3184C59.2684 9.95 59.035 9.51667 58.6184 9.2C58.2184 8.86667 57.6767 8.7 56.9934 8.7C56.36 8.7 55.8684 8.81667 55.5184 9.05C55.185 9.28333 55.0184 9.60833 55.0184 10.025C55.0184 10.4917 55.2517 10.85 55.7184 11.1C56.185 11.3333 56.91 11.575 57.8934 11.825C58.8934 12.075 59.7184 12.3333 60.3684 12.6C61.0184 12.8667 61.5767 13.2833 62.0434 13.85C62.5267 14.4 62.7767 15.1333 62.7934 16.05C62.7934 16.85 62.5684 17.5667 62.1184 18.2C61.685 18.8333 61.0517 19.3333 60.2184 19.7C59.4017 20.05 58.4434 20.225 57.3434 20.225ZM69.7414 9.025V15.725C69.7414 16.1917 69.8497 16.5333 70.0664 16.75C70.2997 16.95 70.6831 17.05 71.2164 17.05H72.8414V20H70.6414C67.6914 20 66.2164 18.5667 66.2164 15.7V9.025H64.5664V6.15H66.2164V2.725H69.7414V6.15H72.8414V9.025H69.7414ZM74.4588 13.025C74.4588 11.625 74.7338 10.3833 75.2838 9.3C75.8505 8.21667 76.6088 7.38333 77.5588 6.8C78.5255 6.21667 79.6005 5.925 80.7838 5.925C81.8171 5.925 82.7171 6.13333 83.4838 6.55C84.2671 6.96667 84.8921 7.49167 85.3588 8.125V6.15H88.8838V20H85.3588V17.975C84.9088 18.625 84.2838 19.1667 83.4838 19.6C82.7005 20.0167 81.7921 20.225 80.7588 20.225C79.5921 20.225 78.5255 19.925 77.5588 19.325C76.6088 18.725 75.8505 17.8833 75.2838 16.8C74.7338 15.7 74.4588 14.4417 74.4588 13.025ZM85.3588 13.075C85.3588 12.225 85.1921 11.5 84.8588 10.9C84.5255 10.2833 84.0755 9.81667 83.5088 9.5C82.9421 9.16667 82.3338 9 81.6838 9C81.0338 9 80.4338 9.15833 79.8838 9.475C79.3338 9.79167 78.8838 10.2583 78.5338 10.875C78.2005 11.475 78.0338 12.1917 78.0338 13.025C78.0338 13.8583 78.2005 14.5917 78.5338 15.225C78.8838 15.8417 79.3338 16.3167 79.8838 16.65C80.4505 16.9833 81.0505 17.15 81.6838 17.15C82.3338 17.15 82.9421 16.9917 83.5088 16.675C84.0755 16.3417 84.5255 15.875 84.8588 15.275C85.1921 14.6583 85.3588 13.925 85.3588 13.075Z" fill="#34CCFF"/>
</svg>
