<svg width="60" height="58" viewBox="0 0 60 58" fill="none" xmlns="http://www.w3.org/2000/svg">
<path d="M51.25 57.5H6.24996C5.83246 57.5 5.44246 57.29 5.20996 56.9425L0.209955 49.4425C-0.0450446 49.06 -0.0700446 48.565 0.147455 48.1575C0.364955 47.755 0.787455 47.5 1.24996 47.5H35C38.445 47.5 41.25 44.6975 41.25 41.25C41.25 40.56 41.81 40 42.5 40H58.75C59.1825 40 59.585 40.225 59.8125 40.5925C60.04 40.96 60.0625 41.42 59.8675 41.8075L52.3675 56.8075C52.155 57.2325 51.7225 57.5 51.25 57.5ZM6.91996 55H50.4775L56.7275 42.5H43.66C43.0525 46.735 39.4 50 35 50H3.58496L6.91996 55Z" fill="#06D0D0"/>
<path d="M34.9999 50H23.7499C23.0599 50 22.4999 49.44 22.4999 48.75V31.25C22.4999 30.56 23.0599 30 23.7499 30H43.7499C44.4399 30 44.9999 30.56 44.9999 31.25V41.25C44.9999 41.94 44.4399 42.5 43.7499 42.5C43.0599 42.5 42.4999 41.94 42.4999 41.25V32.5H24.9999V47.5H34.9999C35.6899 47.5 36.2499 48.06 36.2499 48.75C36.2499 49.44 35.6899 50 34.9999 50Z" fill="#06D0D0"/>
<path d="M29.9999 45C29.3099 45 28.7499 44.44 28.7499 43.75V36.25C28.7499 35.56 29.3099 35 29.9999 35C30.6899 35 31.2499 35.56 31.2499 36.25V43.75C31.2499 44.44 30.6899 45 29.9999 45Z" fill="#06D0D0"/>
<path d="M34.9999 50H23.7499C23.0599 50 22.4999 49.44 22.4999 48.75V31.25C22.4999 30.56 23.0599 30 23.7499 30H43.7499C44.4399 30 44.9999 30.56 44.9999 31.25V41.25C44.9999 41.94 44.4399 42.5 43.7499 42.5C43.0599 42.5 42.4999 41.94 42.4999 41.25V32.5H24.9999V47.5H34.9999C35.6899 47.5 36.2499 48.06 36.2499 48.75C36.2499 49.44 35.6899 50 34.9999 50Z" fill="#06D0D0"/>
<path d="M37.4999 45C36.8099 45 36.2499 44.44 36.2499 43.75V36.25C36.2499 35.56 36.8099 35 37.4999 35C38.1899 35 38.7499 35.56 38.7499 36.25V43.75C38.7499 44.44 38.1899 45 37.4999 45Z" fill="#06D0D0"/>
<path d="M29.9999 45C29.3099 45 28.7499 44.44 28.7499 43.75V36.25C28.7499 35.56 29.3099 35 29.9999 35C30.6899 35 31.2499 35.56 31.2499 36.25V43.75C31.2499 44.44 30.6899 45 29.9999 45Z" fill="#06D0D0"/>
<path d="M23.7499 50H3.74994C3.05994 50 2.49994 49.44 2.49994 48.75V31.25C2.49994 30.56 3.05994 30 3.74994 30H23.7499C24.4399 30 24.9999 30.56 24.9999 31.25V48.75C24.9999 49.44 24.4399 50 23.7499 50ZM4.99994 47.5H22.4999V32.5H4.99994V47.5Z" fill="#06D0D0"/>
<path d="M9.99994 45C9.30994 45 8.74994 44.44 8.74994 43.75V36.25C8.74994 35.56 9.30994 35 9.99994 35C10.6899 35 11.2499 35.56 11.2499 36.25V43.75C11.2499 44.44 10.6899 45 9.99994 45Z" fill="#06D0D0"/>
<path d="M23.7499 50H3.74994C3.05994 50 2.49994 49.44 2.49994 48.75V31.25C2.49994 30.56 3.05994 30 3.74994 30H23.7499C24.4399 30 24.9999 30.56 24.9999 31.25V48.75C24.9999 49.44 24.4399 50 23.7499 50ZM4.99994 47.5H22.4999V32.5H4.99994V47.5Z" fill="#06D0D0"/>
<path d="M17.4999 45C16.8099 45 16.2499 44.44 16.2499 43.75V36.25C16.2499 35.56 16.8099 35 17.4999 35C18.1899 35 18.7499 35.56 18.7499 36.25V43.75C18.7499 44.44 18.1899 45 17.4999 45Z" fill="#06D0D0"/>
<path d="M9.99994 45C9.30994 45 8.74994 44.44 8.74994 43.75V36.25C8.74994 35.56 9.30994 35 9.99994 35C10.6899 35 11.2499 35.56 11.2499 36.25V43.75C11.2499 44.44 10.6899 45 9.99994 45Z" fill="#06D0D0"/>
<path d="M23.7499 32.5H3.74994C3.05994 32.5 2.49994 31.94 2.49994 31.25V16.25C2.49994 15.56 3.05994 15 3.74994 15H23.7499C24.4399 15 24.9999 15.56 24.9999 16.25V31.25C24.9999 31.94 24.4399 32.5 23.7499 32.5ZM4.99994 30H22.4999V17.5H4.99994V30Z" fill="#06D0D0"/>
<path d="M9.99994 27.5C9.30994 27.5 8.74994 26.94 8.74994 26.25V21.25C8.74994 20.56 9.30994 20 9.99994 20C10.6899 20 11.2499 20.56 11.2499 21.25V26.25C11.2499 26.94 10.6899 27.5 9.99994 27.5Z" fill="#06D0D0"/>
<path d="M23.7499 32.5H3.74994C3.05994 32.5 2.49994 31.94 2.49994 31.25V16.25C2.49994 15.56 3.05994 15 3.74994 15H23.7499C24.4399 15 24.9999 15.56 24.9999 16.25V31.25C24.9999 31.94 24.4399 32.5 23.7499 32.5ZM4.99994 30H22.4999V17.5H4.99994V30Z" fill="#06D0D0"/>
<path d="M17.4999 27.5C16.8099 27.5 16.2499 26.94 16.2499 26.25V21.25C16.2499 20.56 16.8099 20 17.4999 20C18.1899 20 18.7499 20.56 18.7499 21.25V26.25C18.7499 26.94 18.1899 27.5 17.4999 27.5Z" fill="#06D0D0"/>
<path d="M9.99994 27.5C9.30994 27.5 8.74994 26.94 8.74994 26.25V21.25C8.74994 20.56 9.30994 20 9.99994 20C10.6899 20 11.2499 20.56 11.2499 21.25V26.25C11.2499 26.94 10.6899 27.5 9.99994 27.5Z" fill="#06D0D0"/>
<path d="M23.7499 17.5H3.74994C3.05994 17.5 2.49994 16.94 2.49994 16.25V1.25C2.49994 0.56 3.05994 0 3.74994 0H23.7499C24.4399 0 24.9999 0.56 24.9999 1.25V16.25C24.9999 16.94 24.4399 17.5 23.7499 17.5ZM4.99994 15H22.4999V2.5H4.99994V15Z" fill="#06D0D0"/>
<path d="M9.99994 12.5C9.30994 12.5 8.74994 11.94 8.74994 11.25V6.25C8.74994 5.56 9.30994 5 9.99994 5C10.6899 5 11.2499 5.56 11.2499 6.25V11.25C11.2499 11.94 10.6899 12.5 9.99994 12.5Z" fill="#06D0D0"/>
<path d="M23.7499 17.5H3.74994C3.05994 17.5 2.49994 16.94 2.49994 16.25V1.25C2.49994 0.56 3.05994 0 3.74994 0H23.7499C24.4399 0 24.9999 0.56 24.9999 1.25V16.25C24.9999 16.94 24.4399 17.5 23.7499 17.5ZM4.99994 15H22.4999V2.5H4.99994V15Z" fill="#06D0D0"/>
<path d="M17.4999 12.5C16.8099 12.5 16.2499 11.94 16.2499 11.25V6.25C16.2499 5.56 16.8099 5 17.4999 5C18.1899 5 18.7499 5.56 18.7499 6.25V11.25C18.7499 11.94 18.1899 12.5 17.4999 12.5Z" fill="#06D0D0"/>
<path d="M9.99994 12.5C9.30994 12.5 8.74994 11.94 8.74994 11.25V6.25C8.74994 5.56 9.30994 5 9.99994 5C10.6899 5 11.2499 5.56 11.2499 6.25V11.25C11.2499 11.94 10.6899 12.5 9.99994 12.5Z" fill="#06D0D0"/>
<path d="M43.7499 32.5H23.7499C23.0599 32.5 22.4999 31.94 22.4999 31.25V16.25C22.4999 15.56 23.0599 15 23.7499 15H43.7499C44.4399 15 44.9999 15.56 44.9999 16.25V31.25C44.9999 31.94 44.4399 32.5 43.7499 32.5ZM24.9999 30H42.4999V17.5H24.9999V30Z" fill="#06D0D0"/>
<path d="M37.4999 27.5C36.8099 27.5 36.2499 26.94 36.2499 26.25V21.25C36.2499 20.56 36.8099 20 37.4999 20C38.1899 20 38.7499 20.56 38.7499 21.25V26.25C38.7499 26.94 38.1899 27.5 37.4999 27.5Z" fill="#06D0D0"/>
<path d="M29.9999 27.5C29.3099 27.5 28.7499 26.94 28.7499 26.25V21.25C28.7499 20.56 29.3099 20 29.9999 20C30.6899 20 31.2499 20.56 31.2499 21.25V26.25C31.2499 26.94 30.6899 27.5 29.9999 27.5Z" fill="#06D0D0"/>
<path d="M53.7499 42.5C53.0599 42.5 52.4999 41.94 52.4999 41.25V28.75C52.4999 28.06 53.0599 27.5 53.7499 27.5C54.4399 27.5 54.9999 28.06 54.9999 28.75V41.25C54.9999 41.94 54.4399 42.5 53.7499 42.5Z" fill="#06D0D0"/>
</svg>
