<svg width="50" height="59" viewBox="0 0 50 59" fill="none" xmlns="http://www.w3.org/2000/svg">
<path d="M43.0209 44.25H6.14591C5.46741 44.25 4.91675 43.6993 4.91675 43.0208V6.14583C4.91675 2.75825 7.675 0 11.0626 0H38.1042C41.4918 0 44.2501 2.75825 44.2501 6.14583V43.0208C44.2501 43.6993 43.6994 44.25 43.0209 44.25ZM7.37508 41.7917H41.7917V6.14583C41.7917 4.11279 40.1373 2.45833 38.1042 2.45833H11.0626C9.02954 2.45833 7.37508 4.11279 7.37508 6.14583V41.7917Z" fill="#06D0D0"/>
<path d="M45.4792 49.1667H3.6875C1.65446 49.1667 0 47.5123 0 45.4792C0 43.4462 1.65446 41.7917 3.6875 41.7917H45.4792C47.5122 41.7917 49.1667 43.4462 49.1667 45.4792C49.1667 47.5123 47.5122 49.1667 45.4792 49.1667ZM3.6875 44.2501C3.009 44.2501 2.45833 44.8007 2.45833 45.4792C2.45833 46.1577 3.009 46.7084 3.6875 46.7084H45.4792C46.1577 46.7084 46.7083 46.1577 46.7083 45.4792C46.7083 44.8007 46.1577 44.2501 45.4792 44.2501H3.6875Z" fill="#06D0D0"/>
<path d="M38.1042 44.25H24.5834C23.9049 44.25 23.3542 43.6993 23.3542 43.0208V30.7292C23.3542 30.0507 23.9049 29.5 24.5834 29.5H38.1042C38.7827 29.5 39.3334 30.0507 39.3334 30.7292V43.0208C39.3334 43.6993 38.7827 44.25 38.1042 44.25ZM25.8126 41.7917H36.8751V31.9583H25.8126V41.7917Z" fill="#06D0D0"/>
<path d="M30.7293 31.9583H18.4377C17.7592 31.9583 17.2085 31.4076 17.2085 30.7291V18.4374C17.2085 17.7589 17.7592 17.2083 18.4377 17.2083H30.7293C31.4078 17.2083 31.9585 17.7589 31.9585 18.4374V30.7291C31.9585 31.4076 31.4078 31.9583 30.7293 31.9583ZM19.6668 29.4999H29.5002V19.6666H19.6668V29.4999Z" fill="#06D0D0"/>
<path d="M24.5835 44.25H11.0627C10.3842 44.25 9.8335 43.6993 9.8335 43.0208V30.7292C9.8335 30.0507 10.3842 29.5 11.0627 29.5H24.5835C25.262 29.5 25.8127 30.0507 25.8127 30.7292V43.0208C25.8127 43.6993 25.262 44.25 24.5835 44.25ZM12.2918 41.7917H23.3543V31.9583H12.2918V41.7917Z" fill="#06D0D0"/>
<path d="M24.5834 23.3541C23.9049 23.3541 23.3542 22.8034 23.3542 22.1249V18.4374C23.3542 17.7589 23.9049 17.2083 24.5834 17.2083C25.2619 17.2083 25.8126 17.7589 25.8126 18.4374V22.1249C25.8126 22.8034 25.2619 23.3541 24.5834 23.3541Z" fill="#06D0D0"/>
<path d="M18.4377 35.6458C17.7592 35.6458 17.2085 35.0952 17.2085 34.4167V30.7292C17.2085 30.0507 17.7592 29.5 18.4377 29.5C19.1162 29.5 19.6668 30.0507 19.6668 30.7292V34.4167C19.6668 35.0952 19.1162 35.6458 18.4377 35.6458Z" fill="#06D0D0"/>
<path d="M30.7292 35.6458C30.0507 35.6458 29.5 35.0952 29.5 34.4167V30.7292C29.5 30.0507 30.0507 29.5 30.7292 29.5C31.4077 29.5 31.9583 30.0507 31.9583 30.7292V34.4167C31.9583 35.0952 31.4077 35.6458 30.7292 35.6458Z" fill="#06D0D0"/>
<path d="M38.1043 7.37508H11.0627C10.3842 7.37508 9.8335 6.82441 9.8335 6.14591C9.8335 5.46741 10.3842 4.91675 11.0627 4.91675H38.1043C38.7828 4.91675 39.3335 5.46741 39.3335 6.14591C39.3335 6.82441 38.7828 7.37508 38.1043 7.37508Z" fill="#06D0D0"/>
<path d="M38.1043 12.2916H11.0627C10.3842 12.2916 9.8335 11.7409 9.8335 11.0624C9.8335 10.3839 10.3842 9.83325 11.0627 9.83325H38.1043C38.7828 9.83325 39.3335 10.3839 39.3335 11.0624C39.3335 11.7409 38.7828 12.2916 38.1043 12.2916Z" fill="#06D0D0"/>
<path d="M38.1043 58.9999H35.646C33.613 58.9999 31.9585 57.3454 31.9585 55.3124V47.9374C31.9585 47.2589 32.5092 46.7083 33.1877 46.7083H40.5627C41.2412 46.7083 41.7918 47.2589 41.7918 47.9374V55.3124C41.7918 57.3454 40.1374 58.9999 38.1043 58.9999ZM34.4168 49.1666V55.3124C34.4168 55.9909 34.9675 56.5416 35.646 56.5416H38.1043C38.7828 56.5416 39.3335 55.9909 39.3335 55.3124V49.1666H34.4168Z" fill="#06D0D0"/>
<path d="M13.5208 58.9999H11.0625C9.02946 58.9999 7.375 57.3454 7.375 55.3124V47.9374C7.375 47.2589 7.92567 46.7083 8.60417 46.7083H15.9792C16.6577 46.7083 17.2083 47.2589 17.2083 47.9374V55.3124C17.2083 57.3454 15.5539 58.9999 13.5208 58.9999ZM9.83333 49.1666V55.3124C9.83333 55.9909 10.384 56.5416 11.0625 56.5416H13.5208C14.1993 56.5416 14.75 55.9909 14.75 55.3124V49.1666H9.83333Z" fill="#06D0D0"/>
<path d="M33.1875 54.0833H15.9792C15.3007 54.0833 14.75 53.5327 14.75 52.8542C14.75 52.1757 15.3007 51.625 15.9792 51.625H33.1875C33.866 51.625 34.4167 52.1757 34.4167 52.8542C34.4167 53.5327 33.866 54.0833 33.1875 54.0833Z" fill="#06D0D0"/>
</svg>
