<svg width="57" height="57" viewBox="0 0 57 57" fill="none" xmlns="http://www.w3.org/2000/svg">
<path d="M20.1875 47.4998H5.93744C3.97332 47.4998 2.37494 45.9014 2.37494 43.9373V17.8123C2.37494 17.1568 2.90694 16.6248 3.56244 16.6248H43.9375C44.593 16.6248 45.125 17.1568 45.125 17.8123V25.0798C45.125 25.7353 44.593 26.2673 43.9375 26.2673C43.282 26.2673 42.75 25.7353 42.75 25.0798V18.9998H4.74994V43.9373C4.74994 44.5928 5.28432 45.1248 5.93744 45.1248H20.1875C20.843 45.1248 21.375 45.6568 21.375 46.3123C21.375 46.9678 20.843 47.4998 20.1875 47.4998Z" fill="#06D0D0"/>
<path d="M29.6875 26.1248H17.8125C17.157 26.1248 16.625 25.5928 16.625 24.9373C16.625 24.2818 17.157 23.7498 17.8125 23.7498H29.6875C30.343 23.7498 30.875 24.2818 30.875 24.9373C30.875 25.5928 30.343 26.1248 29.6875 26.1248Z" fill="#06D0D0"/>
<path d="M46.3125 19H1.1875C0.532001 19 0 18.468 0 17.8125V8.3125C0 7.657 0.532001 7.125 1.1875 7.125H46.3125C46.968 7.125 47.5 7.657 47.5 8.3125V17.8125C47.5 18.468 46.968 19 46.3125 19ZM2.375 16.625H45.125V9.5H2.375V16.625Z" fill="#06D0D0"/>
<path d="M46.3129 9.50001C46.0089 9.50001 45.7049 9.38364 45.4722 9.15326L38.6963 2.375H8.8045L2.02862 9.15326C1.5655 9.61639 0.812621 9.61639 0.349496 9.15326C-0.11363 8.69014 -0.11363 7.93726 0.349496 7.47413L7.4745 0.349125C7.69538 0.125875 7.997 0 8.31288 0H39.1879C39.5038 0 39.8054 0.125875 40.0287 0.34675L47.1537 7.47176C47.6168 7.93488 47.6168 8.68776 47.1537 9.15088C46.9209 9.38364 46.6169 9.50001 46.3129 9.50001Z" fill="#06D0D0"/>
<path d="M34.1074 56.9999C34.0433 56.9999 33.9744 56.9976 33.9103 56.9928C33.1764 56.9358 32.5067 56.5606 32.072 55.9668L29.203 52.0314C29.146 51.9531 29.07 51.8794 28.9869 51.8177L24.7784 48.7183C24.1847 48.2789 23.8142 47.6068 23.7572 46.8729C23.7025 46.1391 23.9685 45.4194 24.491 44.8993C25.2629 44.1251 26.4029 43.9113 27.4075 44.3507L30.495 45.6997L36.9075 38.7884L37.4633 37.3777L36.9075 38.4274L25.688 32.4899C24.9352 32.0363 24.4768 31.3309 24.3794 30.5234C24.2797 29.7159 24.5528 28.9203 25.1299 28.3432C25.6952 27.7755 26.5098 27.5428 27.2912 27.709L43.6074 31.1647C43.7048 31.186 43.7974 31.1599 43.8568 31.091L49.7088 24.8733C50.3619 24.1798 51.4544 23.7737 52.7108 23.7547C54.1049 23.681 55.2093 24.1418 55.9099 24.8424C56.6106 25.543 57.0191 26.7377 57.0001 28.0415C56.9811 29.2979 56.5726 30.3928 55.8791 31.0459L49.6471 36.9217C49.5758 36.9882 49.5473 37.0808 49.5687 37.1687L53.3212 53.6797C53.5088 54.4706 53.2737 55.2947 52.6966 55.8766C52.1242 56.4513 51.3452 56.7339 50.5258 56.6294C49.7207 56.5344 49.0153 56.0856 48.5926 55.3944L42.3463 43.8448L41.1778 42.9779L41.9877 43.8472L35.0907 50.2573L36.4397 53.3496C36.8767 54.3518 36.6605 55.4942 35.891 56.2637C35.4137 56.7363 34.7748 56.9999 34.1074 56.9999ZM42.1563 41.4033C42.2751 41.4033 42.3962 41.4104 42.5149 41.427C43.2987 41.5339 43.9851 41.9804 44.4007 42.6549L50.6469 54.2046L51.8558 55.0334L51.0151 54.1951L47.2578 37.7054C47.0393 36.7982 47.3338 35.8268 48.0249 35.1832L54.2522 29.3145C54.4232 29.1507 54.6156 28.6709 54.6251 28.0035C54.6346 27.2982 54.4351 26.7234 54.2308 26.5192C54.0266 26.3149 53.4328 26.094 52.7464 26.1249C52.0814 26.1344 51.6041 26.3244 51.4402 26.4978L45.5906 32.7108C44.9612 33.3853 44.0064 33.6774 43.1063 33.4803L26.79 30.0247L26.2438 31.433L26.7995 30.3833L38.019 36.3208C38.7577 36.7649 39.2089 37.4513 39.3229 38.2374C39.4345 39.0259 39.1876 39.812 38.6484 40.3963L31.6612 47.9251C31.3168 48.2956 30.78 48.4096 30.3169 48.2053L26.4552 46.5191C26.3649 46.4787 26.2485 46.4977 26.1725 46.5713L30.4024 49.8987C30.6779 50.1029 30.9202 50.3452 31.122 50.6207L33.9958 54.5608C34.2879 54.5038 34.3093 54.3874 34.2642 54.2901L32.5803 50.4283C32.3784 49.9652 32.49 49.4261 32.8582 49.0841L40.3703 42.1015C40.8619 41.6503 41.4984 41.4033 42.1563 41.4033ZM55.0668 30.179H55.0906H55.0668Z" fill="#06D0D0"/>
</svg>
