<svg width="57" height="57" viewBox="0 0 57 57" fill="none" xmlns="http://www.w3.org/2000/svg">
<g clip-path="url(#clip0)">
<path d="M43.8686 54.2783C43.7689 54.2783 43.6668 54.2664 43.567 54.2379C42.9329 54.0716 42.5529 53.4233 42.7215 52.7891L47.2008 35.7485L28.5 28.6401L9.80164 35.7485L14.2809 52.7891C14.4471 53.4233 14.0695 54.074 13.4354 54.2379C12.7989 54.4089 12.1505 54.0265 11.9866 53.3924L7.23664 35.3186C7.08226 34.732 7.39576 34.124 7.96339 33.9079L28.0796 26.2604C28.3504 26.1559 28.652 26.1559 28.9228 26.2604L49.039 33.9079C49.6066 34.124 49.9201 34.732 49.7658 35.3186L45.0158 53.3924C44.8756 53.9268 44.3935 54.2783 43.8686 54.2783Z" fill="#06D0D0"/>
<path d="M55.8125 57C52.2856 57 49.0414 55.2971 47.139 52.4423C46.949 52.1573 46.4692 52.1597 46.2793 52.4423C44.3745 55.2971 41.1326 57 37.6034 57C34.0741 57 30.8323 55.2971 28.9275 52.4423C28.7399 52.1597 28.2578 52.1597 28.0701 52.4423C26.1678 55.2971 22.9235 57 19.3966 57C15.8697 57 12.6255 55.2971 10.7231 52.4423C10.5331 52.1597 10.0557 52.1573 9.86337 52.4423C7.95862 55.2971 4.71438 57 1.1875 57C0.532 57 0 56.468 0 55.8125C0 55.1569 0.532 54.6249 1.1875 54.6249C3.91875 54.6249 6.42437 53.3163 7.885 51.1242C8.93 49.5567 11.6518 49.5591 12.6968 51.1242C14.1597 53.3163 16.663 54.6249 19.3966 54.6249C22.1302 54.6249 24.6335 53.3163 26.0965 51.1242C27.1391 49.5591 29.8632 49.5591 30.9059 51.1242C32.3665 53.3163 34.8721 54.6249 37.6034 54.6249C40.3346 54.6249 42.8402 53.3163 44.3009 51.1242C45.3435 49.5591 48.0676 49.5567 49.1126 51.1242C50.5756 53.3163 53.0812 54.6249 55.8125 54.6249C56.468 54.6249 57 55.1569 57 55.8125C57 56.468 56.468 57 55.8125 57Z" fill="#06D0D0"/>
<path d="M13.0625 34.4137C12.407 34.4137 11.875 33.8817 11.875 33.2262V20.1875C11.875 19.532 12.407 19 13.0625 19H28.5C29.1555 19 29.6875 19.532 29.6875 20.1875V27.36C29.6875 28.0155 29.1555 28.5475 28.5 28.5475C27.8445 28.5475 27.3125 28.0155 27.3125 27.36V21.375H14.25V33.2262C14.25 33.8841 13.718 34.4137 13.0625 34.4137Z" fill="#06D0D0"/>
<path d="M43.9375 34.4137C43.282 34.4137 42.75 33.8817 42.75 33.2262V21.375H29.6875V27.36C29.6875 28.0155 29.1555 28.5475 28.5 28.5475C27.8445 28.5475 27.3125 28.0155 27.3125 27.36V20.1875C27.3125 19.532 27.8445 19 28.5 19H43.9375C44.593 19 45.125 19.532 45.125 20.1875V33.2262C45.125 33.8841 44.593 34.4137 43.9375 34.4137Z" fill="#06D0D0"/>
<path d="M36.8125 21.375C36.157 21.375 35.625 20.843 35.625 20.1875V9.5H21.375V20.1875C21.375 20.843 20.843 21.375 20.1875 21.375C19.532 21.375 19 20.843 19 20.1875V8.3125C19 7.657 19.532 7.125 20.1875 7.125H36.8125C37.468 7.125 38 7.657 38 8.3125V20.1875C38 20.843 37.468 21.375 36.8125 21.375Z" fill="#06D0D0"/>
<path d="M28.5 9.5C27.8445 9.5 27.3125 8.968 27.3125 8.3125V1.1875C27.3125 0.532 27.8445 0 28.5 0C29.1555 0 29.6875 0.532 29.6875 1.1875V8.3125C29.6875 8.968 29.1555 9.5 28.5 9.5Z" fill="#06D0D0"/>
</g>
<defs>
<clipPath id="clip0">
<rect width="57" height="57" fill="white"/>
</clipPath>
</defs>
</svg>
