<svg width="57" height="57" viewBox="0 0 57 57" fill="none" xmlns="http://www.w3.org/2000/svg">
<path d="M17.1109 56.0025C17.0199 56.0025 16.9312 56.0002 16.8402 55.9932C15.8229 55.9139 14.8965 55.3982 14.2945 54.5746L9.30594 47.7333C9.1496 47.5186 8.96061 47.3296 8.74128 47.1663L1.42169 41.7787C0.600365 41.1744 0.0870378 40.2457 0.0100386 39.2284C-0.0669605 38.2134 0.301702 37.2171 1.02269 36.4984C2.10068 35.4204 3.70133 35.1194 5.09432 35.7284L11.0466 38.3301L22.6268 25.8515C22.9021 25.5552 23.0281 25.1539 22.9698 24.7502C22.9115 24.3466 22.6805 23.9966 22.3328 23.7866L2.89167 13.4967C1.86269 12.8784 1.22336 11.8914 1.08569 10.762C0.948028 9.63273 1.33069 8.52207 2.13568 7.71475C2.90567 6.94475 3.99533 6.62276 5.06632 6.85609L33.4347 12.8644C33.9083 12.9717 34.3913 12.8177 34.711 12.4724L44.8795 1.66915C45.8525 0.637824 47.5232 0.0334979 49.4645 0.00316488C51.4385 -0.0505012 53.3215 0.581825 54.3738 1.63415C55.4238 2.68414 56.0328 4.52045 56.0048 6.54343C55.9768 8.48474 55.3701 10.1554 54.3411 11.1284L43.5076 21.3389C43.1482 21.6726 42.9989 22.1696 43.1109 22.6362L49.6325 51.3219C49.8868 52.3976 49.5695 53.5176 48.7808 54.3062C47.9805 55.1066 46.8722 55.4892 45.7522 55.3586C44.6276 55.2256 43.6429 54.5979 43.0502 53.6319L32.2144 33.6028C32.0347 33.3135 31.6847 33.0871 31.2857 33.0311C30.8867 32.9705 30.4877 33.1035 30.1914 33.3765L17.7385 44.9497L20.3378 50.9043C20.9468 52.3019 20.6458 53.9002 19.5702 54.9782C18.9145 55.6385 18.0302 56.0025 17.1109 56.0025ZM3.622 37.7514C3.27434 37.7514 2.93367 37.8891 2.67468 38.1457C2.43201 38.3884 2.31301 38.7104 2.33868 39.0511C2.36435 39.3941 2.53001 39.6927 2.80534 39.8957L10.1273 45.2857C10.5403 45.5913 10.8973 45.9507 11.1936 46.3566L16.1799 53.1956C16.3805 53.4709 16.6792 53.6366 17.0199 53.6646C17.3628 53.6856 17.6778 53.5736 17.9182 53.3309C18.3102 52.9366 18.4222 52.3509 18.1982 51.8399L15.2699 45.1293C15.0739 44.6743 15.1812 44.1447 15.5452 43.8087L28.6047 31.6708C29.4144 30.9172 30.5064 30.5765 31.603 30.7235C32.6973 30.8728 33.6563 31.5005 34.235 32.4408L45.0709 52.4699C45.2552 52.7662 45.6145 52.9972 46.0252 53.0439C46.4242 53.0906 46.8395 52.9529 47.1312 52.6589C47.3389 52.4489 47.4275 52.1386 47.3599 51.8493L40.8359 23.1636C40.5373 21.8919 40.9456 20.5363 41.9069 19.6379L52.7381 9.42973C53.2935 8.90473 53.6505 7.78708 53.6691 6.51076C53.6878 5.14811 53.3168 3.88112 52.7218 3.28613C52.1268 2.6888 50.8201 2.29214 49.4972 2.33647C48.2232 2.35514 47.1032 2.71213 46.5805 3.26746L36.4166 14.066C35.5393 15.0063 34.214 15.424 32.9447 15.144L4.57632 9.13806C4.28466 9.07273 3.993 9.15906 3.78766 9.3644C3.49367 9.66073 3.35367 10.0644 3.40267 10.4797C3.454 10.8927 3.68733 11.2544 4.04199 11.469L23.4831 21.7589C24.4911 22.3633 25.1258 23.3246 25.2821 24.4259C25.4384 25.5272 25.0931 26.6239 24.3394 27.4405L12.1946 40.5257C11.8562 40.8897 11.3266 40.9994 10.8716 40.801L4.16099 37.8681C3.98833 37.7887 3.804 37.7514 3.622 37.7514ZM53.5385 10.2814H53.5618H53.5385Z" fill="#06D0D0"/>
</svg>
