<svg width="46" height="58" viewBox="0 0 46 58" fill="none" xmlns="http://www.w3.org/2000/svg">
<path d="M33.8333 58.0001H12.0833C10.0847 58.0001 8.45831 56.3737 8.45831 54.3751V35.0417C8.45831 33.0432 10.0847 31.4167 12.0833 31.4167H33.8333C35.8319 31.4167 37.4583 33.0432 37.4583 35.0417V54.3751C37.4583 56.3737 35.8319 58.0001 33.8333 58.0001ZM12.0833 33.8334C11.4187 33.8334 10.875 34.3747 10.875 35.0417V54.3751C10.875 55.0421 11.4187 55.5834 12.0833 55.5834H33.8333C34.4979 55.5834 35.0416 55.0421 35.0416 54.3751V35.0417C35.0416 34.3747 34.4979 33.8334 33.8333 33.8334H12.0833Z" fill="#06D0D0"/>
<path d="M26.5833 41.0834H19.3333C18.6663 41.0834 18.125 40.5421 18.125 39.8751V32.6251C18.125 31.9581 18.6663 31.4167 19.3333 31.4167H26.5833C27.2503 31.4167 27.7917 31.9581 27.7917 32.6251V39.8751C27.7917 40.5421 27.2503 41.0834 26.5833 41.0834ZM20.5417 38.6667H25.375V33.8334H20.5417V38.6667Z" fill="#06D0D0"/>
<path d="M31.4167 53.1667H26.5833C25.9163 53.1667 25.375 52.6253 25.375 51.9583C25.375 51.2913 25.9163 50.75 26.5833 50.75H31.4167C32.0837 50.75 32.625 51.2913 32.625 51.9583C32.625 52.6253 32.0837 53.1667 31.4167 53.1667Z" fill="#06D0D0"/>
<path d="M44.7083 24.1667H1.20833C0.541333 24.1667 0 23.6253 0 22.9583C0 10.2998 10.2998 0 22.9583 0C35.6168 0 45.9167 10.2998 45.9167 22.9583C45.9167 23.6253 45.3753 24.1667 44.7083 24.1667ZM2.45292 21.75H43.4662C42.8378 10.9838 33.8792 2.41667 22.9583 2.41667C12.0374 2.41667 3.07883 10.9838 2.45292 21.75Z" fill="#06D0D0"/>
<path d="M36.25 36.2499C36.0373 36.2499 35.8222 36.1943 35.6289 36.0783C35.0561 35.7351 34.8701 34.9932 35.2132 34.4204L42.4632 22.3371C42.8088 21.7644 43.558 21.5831 44.1211 21.9239C44.6938 22.267 44.8799 23.0089 44.5367 23.5817L37.2867 35.665C37.0596 36.042 36.6584 36.2499 36.25 36.2499Z" fill="#06D0D0"/>
<path d="M9.66663 36.1678C9.25821 36.1678 8.85946 35.96 8.63229 35.5854L1.38229 23.5842C1.03912 23.0115 1.22037 22.2695 1.79071 21.924C2.35862 21.5832 3.10296 21.7596 3.45096 22.3324L10.701 34.3335C11.0465 34.9063 10.8629 35.6482 10.2925 35.9938C10.0968 36.1098 9.88171 36.1678 9.66663 36.1678Z" fill="#06D0D0"/>
<path d="M19.3333 33.8333C18.8911 33.8333 18.4657 33.5892 18.2531 33.1663L13.4197 23.4996C13.1225 22.9027 13.3617 22.1753 13.9586 21.878C14.558 21.5832 15.2806 21.8224 15.5802 22.4193L20.4136 32.086C20.7108 32.6829 20.4691 33.4079 19.8722 33.7076C19.6982 33.7922 19.5146 33.8333 19.3333 33.8333Z" fill="#06D0D0"/>
<path d="M26.5833 33.8334C26.4021 33.8334 26.2184 33.7923 26.042 33.7053C25.4451 33.4056 25.2034 32.6806 25.5007 32.0837L30.334 22.4171C30.6336 21.8201 31.3611 21.5833 31.9556 21.8757C32.5525 22.1754 32.7941 22.9004 32.4969 23.4973L27.6636 33.164C27.4509 33.5893 27.0256 33.8334 26.5833 33.8334Z" fill="#06D0D0"/>
</svg>
