<svg width="89" height="27" viewBox="0 0 89 27" fill="none" xmlns="http://www.w3.org/2000/svg">
<path d="M4.22501 17.2249H9.97501V19.9999H0.725006V2.5499H4.22501V17.2249ZM18.3496 20.2249C17.0163 20.2249 15.8163 19.9332 14.7496 19.3499C13.6829 18.7499 12.8413 17.9082 12.2246 16.8249C11.6246 15.7416 11.3246 14.4916 11.3246 13.0749C11.3246 11.6582 11.6329 10.4082 12.2496 9.3249C12.8829 8.24157 13.7413 7.40823 14.8246 6.8249C15.9079 6.2249 17.1163 5.9249 18.4496 5.9249C19.7829 5.9249 20.9913 6.2249 22.0746 6.8249C23.1579 7.40823 24.0079 8.24157 24.6246 9.3249C25.2579 10.4082 25.5746 11.6582 25.5746 13.0749C25.5746 14.4916 25.2496 15.7416 24.5996 16.8249C23.9663 17.9082 23.0996 18.7499 21.9996 19.3499C20.9163 19.9332 19.6996 20.2249 18.3496 20.2249ZM18.3496 17.1749C18.9829 17.1749 19.5746 17.0249 20.1246 16.7249C20.6913 16.4082 21.1413 15.9416 21.4746 15.3249C21.8079 14.7082 21.9746 13.9582 21.9746 13.0749C21.9746 11.7582 21.6246 10.7499 20.9246 10.0499C20.2413 9.33323 19.3996 8.9749 18.3996 8.9749C17.3996 8.9749 16.5579 9.33323 15.8746 10.0499C15.2079 10.7499 14.8746 11.7582 14.8746 13.0749C14.8746 14.3916 15.1996 15.4082 15.8496 16.1249C16.5163 16.8249 17.3496 17.1749 18.3496 17.1749ZM33.567 5.9249C34.6003 5.9249 35.5087 6.13323 36.292 6.5499C37.0753 6.9499 37.692 7.4749 38.142 8.1249V6.1499H41.667V20.0999C41.667 21.3832 41.4087 22.5249 40.892 23.5249C40.3753 24.5416 39.6003 25.3416 38.567 25.9249C37.5337 26.5249 36.2837 26.8249 34.817 26.8249C32.8503 26.8249 31.2337 26.3666 29.967 25.4499C28.717 24.5332 28.0087 23.2832 27.842 21.6999H31.317C31.5003 22.3332 31.892 22.8332 32.492 23.1999C33.1087 23.5832 33.8503 23.7749 34.717 23.7749C35.7337 23.7749 36.5587 23.4666 37.192 22.8499C37.8253 22.2499 38.142 21.3332 38.142 20.0999V17.9499C37.692 18.5999 37.067 19.1416 36.267 19.5749C35.4837 20.0082 34.5837 20.2249 33.567 20.2249C32.4003 20.2249 31.3337 19.9249 30.367 19.3249C29.4003 18.7249 28.6337 17.8832 28.067 16.7999C27.517 15.6999 27.242 14.4416 27.242 13.0249C27.242 11.6249 27.517 10.3832 28.067 9.2999C28.6337 8.21657 29.392 7.38323 30.342 6.7999C31.3087 6.21657 32.3837 5.9249 33.567 5.9249ZM38.142 13.0749C38.142 12.2249 37.9753 11.4999 37.642 10.8999C37.3087 10.2832 36.8587 9.81657 36.292 9.4999C35.7253 9.16657 35.117 8.9999 34.467 8.9999C33.817 8.9999 33.217 9.15823 32.667 9.4749C32.117 9.79157 31.667 10.2582 31.317 10.8749C30.9837 11.4749 30.817 12.1916 30.817 13.0249C30.817 13.8582 30.9837 14.5916 31.317 15.2249C31.667 15.8416 32.117 16.3166 32.667 16.6499C33.2337 16.9832 33.8337 17.1499 34.467 17.1499C35.117 17.1499 35.7253 16.9916 36.292 16.6749C36.8587 16.3416 37.3087 15.8749 37.642 15.2749C37.9753 14.6582 38.142 13.9249 38.142 13.0749ZM46.8604 4.4999C46.2437 4.4999 45.727 4.30823 45.3104 3.9249C44.9104 3.5249 44.7104 3.03323 44.7104 2.4499C44.7104 1.86657 44.9104 1.38323 45.3104 0.999902C45.727 0.599902 46.2437 0.399902 46.8604 0.399902C47.477 0.399902 47.9854 0.599902 48.3854 0.999902C48.802 1.38323 49.0104 1.86657 49.0104 2.4499C49.0104 3.03323 48.802 3.5249 48.3854 3.9249C47.9854 4.30823 47.477 4.4999 46.8604 4.4999ZM48.5854 6.1499V19.9999H45.0854V6.1499H48.5854Z" fill="white"/>
<path d="M57.3434 20.2251C56.21 20.2251 55.1934 20.0251 54.2934 19.6251C53.3934 19.2084 52.6767 18.6501 52.1434 17.9501C51.6267 17.2501 51.3434 16.4751 51.2934 15.6251H54.8184C54.885 16.1584 55.1434 16.6001 55.5934 16.9501C56.06 17.3001 56.635 17.4751 57.3184 17.4751C57.985 17.4751 58.5017 17.3418 58.8684 17.0751C59.2517 16.8084 59.4434 16.4668 59.4434 16.0501C59.4434 15.6001 59.21 15.2668 58.7434 15.0501C58.2934 14.8168 57.5684 14.5668 56.5684 14.3001C55.535 14.0501 54.685 13.7918 54.0184 13.5251C53.3684 13.2584 52.8017 12.8501 52.3184 12.3001C51.8517 11.7501 51.6184 11.0084 51.6184 10.0751C51.6184 9.30843 51.835 8.60843 52.2684 7.9751C52.7184 7.34177 53.3517 6.84177 54.1684 6.4751C55.0017 6.10843 55.9767 5.9251 57.0934 5.9251C58.7434 5.9251 60.06 6.34177 61.0434 7.1751C62.0267 7.99177 62.5684 9.1001 62.6684 10.5001H59.3184C59.2684 9.9501 59.035 9.51677 58.6184 9.2001C58.2184 8.86677 57.6767 8.7001 56.9934 8.7001C56.36 8.7001 55.8684 8.81677 55.5184 9.0501C55.185 9.28343 55.0184 9.60843 55.0184 10.0251C55.0184 10.4918 55.2517 10.8501 55.7184 11.1001C56.185 11.3334 56.91 11.5751 57.8934 11.8251C58.8934 12.0751 59.7184 12.3334 60.3684 12.6001C61.0184 12.8668 61.5767 13.2834 62.0434 13.8501C62.5267 14.4001 62.7767 15.1334 62.7934 16.0501C62.7934 16.8501 62.5684 17.5668 62.1184 18.2001C61.685 18.8334 61.0517 19.3334 60.2184 19.7001C59.4017 20.0501 58.4434 20.2251 57.3434 20.2251ZM69.7414 9.0251V15.7251C69.7414 16.1918 69.8497 16.5334 70.0664 16.7501C70.2997 16.9501 70.6831 17.0501 71.2164 17.0501H72.8414V20.0001H70.6414C67.6914 20.0001 66.2164 18.5668 66.2164 15.7001V9.0251H64.5664V6.1501H66.2164V2.7251H69.7414V6.1501H72.8414V9.0251H69.7414ZM74.4588 13.0251C74.4588 11.6251 74.7338 10.3834 75.2838 9.3001C75.8505 8.21677 76.6088 7.38343 77.5588 6.8001C78.5255 6.21677 79.6005 5.9251 80.7838 5.9251C81.8171 5.9251 82.7171 6.13343 83.4838 6.5501C84.2671 6.96677 84.8921 7.49177 85.3588 8.1251V6.1501H88.8838V20.0001H85.3588V17.9751C84.9088 18.6251 84.2838 19.1668 83.4838 19.6001C82.7005 20.0168 81.7921 20.2251 80.7588 20.2251C79.5921 20.2251 78.5255 19.9251 77.5588 19.3251C76.6088 18.7251 75.8505 17.8834 75.2838 16.8001C74.7338 15.7001 74.4588 14.4418 74.4588 13.0251ZM85.3588 13.0751C85.3588 12.2251 85.1921 11.5001 84.8588 10.9001C84.5255 10.2834 84.0755 9.81677 83.5088 9.5001C82.9421 9.16677 82.3338 9.0001 81.6838 9.0001C81.0338 9.0001 80.4338 9.15843 79.8838 9.4751C79.3338 9.79177 78.8838 10.2584 78.5338 10.8751C78.2005 11.4751 78.0338 12.1918 78.0338 13.0251C78.0338 13.8584 78.2005 14.5918 78.5338 15.2251C78.8838 15.8418 79.3338 16.3168 79.8838 16.6501C80.4505 16.9834 81.0505 17.1501 81.6838 17.1501C82.3338 17.1501 82.9421 16.9918 83.5088 16.6751C84.0755 16.3418 84.5255 15.8751 84.8588 15.2751C85.1921 14.6584 85.3588 13.9251 85.3588 13.0751Z" fill="#34CCFF"/>
</svg>
