<svg width="13" height="19" viewBox="0 0 13 19" fill="none" xmlns="http://www.w3.org/2000/svg">
<path d="M11.6071 0H2.10714C1.74721 0 1.40201 0.142984 1.1475 0.397498C0.892984 0.652012 0.75 0.997206 0.75 1.35714V17.6429C0.75 18.0028 0.892984 18.348 1.1475 18.6025C1.40201 18.857 1.74721 19 2.10714 19H11.6071C11.9671 19 12.3123 18.857 12.5668 18.6025C12.8213 18.348 12.9643 18.0028 12.9643 17.6429V1.35714C12.9643 0.997206 12.8213 0.652012 12.5668 0.397498C12.3123 0.142984 11.9671 0 11.6071 0ZM2.10714 1.35714H11.6071V13.5714H2.10714V1.35714ZM2.10714 17.6429V14.9286H11.6071V17.6429H2.10714Z" fill="#8294A9"/>
<path d="M6.17853 15.6072H7.53568V16.9644H6.17853V15.6072Z" fill="#8294A9"/>
</svg>
