<svg width="71" height="71" viewBox="0 0 71 71" fill="none" xmlns="http://www.w3.org/2000/svg">
<g clip-path="url(#clip0)">
<path d="M47.7154 42.7518C46.2837 41.3201 43.9621 41.32 42.5303 42.7519L20.5411 64.741C19.1093 66.1729 19.1093 68.4943 20.5413 69.9261C21.2571 70.642 22.1954 71.0001 23.1338 71.0001C24.0721 71.0001 25.0104 70.6421 25.7264 69.9261L47.7155 47.937C49.1473 46.5052 49.1473 44.1836 47.7154 42.7518Z" fill="url(#paint0_linear)"/>
<path d="M47.7154 42.7518C46.2837 41.3201 43.9621 41.32 42.5303 42.7519L20.5411 64.741C19.1093 66.1729 19.1093 68.4943 20.5413 69.9261C21.2571 70.642 22.1954 71.0001 23.1338 71.0001C24.0721 71.0001 25.0104 70.6421 25.7264 69.9261L47.7155 47.937C49.1473 46.5052 49.1473 44.1836 47.7154 42.7518Z" fill="url(#paint1_linear)"/>
<path d="M37.9818 33.0182C36.5501 31.5864 34.2285 31.5864 32.7967 33.0182L10.8076 55.0073C9.37576 56.4393 9.37576 58.7607 10.8076 60.1926C11.5234 60.9085 12.4618 61.2665 13.4001 61.2665C14.3384 61.2665 15.2767 60.9084 15.9927 60.1926L37.9818 38.2034C39.4138 36.7715 39.4138 34.45 37.9818 33.0182Z" fill="url(#paint2_linear)"/>
<path d="M37.9818 33.0182C36.5501 31.5864 34.2285 31.5864 32.7967 33.0182L10.8076 55.0073C9.37576 56.4393 9.37576 58.7607 10.8076 60.1926C11.5234 60.9085 12.4618 61.2665 13.4001 61.2665C14.3384 61.2665 15.2767 60.9084 15.9927 60.1926L37.9818 38.2034C39.4138 36.7715 39.4138 34.45 37.9818 33.0182Z" fill="url(#paint3_linear)"/>
<path d="M28.2483 23.2846C26.8164 21.8527 24.4949 21.8527 23.0632 23.2846L1.07391 45.2736C-0.357926 46.7054 -0.357926 49.027 1.07377 50.4588C1.78975 51.1748 2.72793 51.5327 3.66638 51.5327C4.6047 51.5327 5.54315 51.1746 6.25886 50.4589L28.2481 28.4698C29.6801 27.0378 29.6801 24.7164 28.2483 23.2846Z" fill="url(#paint4_linear)"/>
<path d="M28.2483 23.2846C26.8164 21.8527 24.4949 21.8527 23.0632 23.2846L1.07391 45.2736C-0.357926 46.7054 -0.357926 49.027 1.07377 50.4588C1.78975 51.1748 2.72793 51.5327 3.66638 51.5327C4.6047 51.5327 5.54315 51.1746 6.25886 50.4589L28.2481 28.4698C29.6801 27.0378 29.6801 24.7164 28.2483 23.2846Z" fill="url(#paint5_linear)"/>
<path d="M21.0601 31.7417V51.3598C21.0601 52.7473 22.7377 53.4422 23.7187 52.461L52.916 24.3072V11.3889L21.0601 31.7417Z" fill="url(#paint6_linear)"/>
<path d="M21.0601 31.7417V51.3598C21.0601 52.7473 22.7377 53.4422 23.7187 52.461L52.916 24.3072V11.3889L21.0601 31.7417Z" fill="url(#paint7_linear)"/>
<path d="M21.0601 31.7417V32.3064L32.6259 43.8723L52.916 24.3072V11.3889L21.0601 31.7417Z" fill="url(#paint8_linear)"/>
<path d="M67.3126 0.103091L1.39536 17.7661C-0.229005 18.2014 -0.510221 20.3864 0.950987 21.2188L19.2861 31.6871C20.8417 32.5753 22.752 32.5706 24.3033 31.6748L48.3637 17.7811C50.9553 16.2845 53.5684 19.6923 51.4508 21.807L33.0799 40.1518C31.829 41.4009 31.643 43.3627 32.6366 44.8247L49.7816 70.0494C50.6139 71.5107 52.7991 71.2295 53.2343 69.605L70.8973 3.68776C71.4804 1.5114 69.489 -0.480083 67.3126 0.103091Z" fill="url(#paint9_linear)"/>
<path d="M39.2128 38.2483C38.2472 36.8277 38.3988 34.937 39.5555 33.6851L33.0799 40.1515C31.829 41.4005 31.643 43.3624 32.6366 44.8244L49.7815 70.0492C50.6138 71.5105 52.799 71.2293 53.2341 69.6048L55.2958 61.9107L39.2128 38.2483Z" fill="url(#paint10_linear)"/>
<path d="M47.5132 25.7292L53.9401 19.3113C56.6852 16.5702 53.2978 12.1527 49.9383 14.0927L30.8794 25.0984C29.3281 25.9942 27.4178 25.9988 25.8622 25.1106L9.29167 15.6499L1.39521 17.7659C-0.229158 18.2012 -0.510374 20.3862 0.950835 21.2186L19.286 31.6869C20.8416 32.5751 22.7519 32.5704 24.3032 31.6746L43.3621 20.6691C46.6577 18.7659 49.9794 22.9805 47.5132 25.7292Z" fill="url(#paint11_linear)"/>
</g>
<defs>
<linearGradient id="paint0_linear" x1="3.33046" y1="56.339" x2="42.1164" y2="56.339" gradientUnits="userSpaceOnUse">
<stop stop-color="#76CCF8"/>
<stop offset="0.833" stop-color="#518EF8"/>
<stop offset="1" stop-color="#4981F8"/>
</linearGradient>
<linearGradient id="paint1_linear" x1="32.3503" y1="57.5345" x2="37.7333" y2="53.9149" gradientUnits="userSpaceOnUse">
<stop stop-color="#4071F7" stop-opacity="0"/>
<stop offset="1" stop-color="#30569F"/>
</linearGradient>
<linearGradient id="paint2_linear" x1="3.33046" y1="46.6054" x2="42.1164" y2="46.6054" gradientUnits="userSpaceOnUse">
<stop stop-color="#76CCF8"/>
<stop offset="0.833" stop-color="#518EF8"/>
<stop offset="1" stop-color="#4981F8"/>
</linearGradient>
<linearGradient id="paint3_linear" x1="16.4275" y1="46.6054" x2="23.8529" y2="46.6054" gradientUnits="userSpaceOnUse">
<stop stop-color="#4071F7" stop-opacity="0"/>
<stop offset="1" stop-color="#30569F"/>
</linearGradient>
<linearGradient id="paint4_linear" x1="3.33046" y1="36.8716" x2="42.1164" y2="36.8716" gradientUnits="userSpaceOnUse">
<stop stop-color="#76CCF8"/>
<stop offset="0.833" stop-color="#518EF8"/>
<stop offset="1" stop-color="#4981F8"/>
</linearGradient>
<linearGradient id="paint5_linear" x1="13.3778" y1="38.3331" x2="20.0601" y2="30.7226" gradientUnits="userSpaceOnUse">
<stop stop-color="#4071F7" stop-opacity="0"/>
<stop offset="1" stop-color="#30569F"/>
</linearGradient>
<linearGradient id="paint6_linear" x1="36.543" y1="31.2721" x2="39.8516" y2="34.4915" gradientUnits="userSpaceOnUse">
<stop stop-color="#EEF4FF"/>
<stop offset="1" stop-color="#CFE7FD"/>
</linearGradient>
<linearGradient id="paint7_linear" x1="30.7728" y1="25.4838" x2="41.7111" y2="36.4223" gradientUnits="userSpaceOnUse">
<stop stop-color="#8AAADC" stop-opacity="0"/>
<stop offset="1" stop-color="#8AAADC"/>
</linearGradient>
<linearGradient id="paint8_linear" x1="43.3828" y1="32.0488" x2="37.7183" y2="23.0125" gradientUnits="userSpaceOnUse">
<stop stop-color="#8AAADC" stop-opacity="0"/>
<stop offset="1" stop-color="#8AAADC"/>
</linearGradient>
<linearGradient id="paint9_linear" x1="21.2009" y1="-3.25493" x2="69.1507" y2="44.6948" gradientUnits="userSpaceOnUse">
<stop stop-color="#EEF4FF"/>
<stop offset="1" stop-color="#CFE7FD"/>
</linearGradient>
<linearGradient id="paint10_linear" x1="45.1059" y1="52.8591" x2="39.138" y2="57.2924" gradientUnits="userSpaceOnUse">
<stop stop-color="#8AAADC" stop-opacity="0"/>
<stop offset="1" stop-color="#8AAADC"/>
</linearGradient>
<linearGradient id="paint11_linear" x1="22.24" y1="27.9334" x2="18.8963" y2="33.9969" gradientUnits="userSpaceOnUse">
<stop stop-color="#8AAADC" stop-opacity="0"/>
<stop offset="1" stop-color="#8AAADC"/>
</linearGradient>
<clipPath id="clip0">
<rect width="71" height="71" fill="white"/>
</clipPath>
</defs>
</svg>
