<svg width="65" height="65" viewBox="0 0 65 65" fill="none" xmlns="http://www.w3.org/2000/svg">
<path d="M30.5713 6.76455C30.6554 6.84099 30.7538 6.89986 30.8609 6.93769C30.9681 6.97552 31.0816 6.99154 31.195 6.98481C32.5001 6.92378 33.8078 6.95453 35.1085 7.07685C35.1363 7.07922 35.1638 7.08045 35.1912 7.08053C35.4144 7.07913 35.6286 6.99214 35.7896 6.83749C35.9506 6.68284 36.0461 6.47232 36.0565 6.24932C36.0669 6.02632 35.9913 5.80783 35.8454 5.63888C35.6995 5.46994 35.4943 5.36342 35.2721 5.34128C33.8899 5.21123 32.5002 5.1786 31.1134 5.24365C30.9406 5.25206 30.7742 5.3116 30.6353 5.41473C30.4963 5.51785 30.3912 5.65991 30.3331 5.82289C30.275 5.98587 30.2667 6.16243 30.3091 6.33017C30.3515 6.4979 30.4428 6.64926 30.5713 6.76505V6.76455Z" fill="#06D0D0"/>
<path d="M21.9837 8.97355C22.0948 8.97334 22.2048 8.95179 22.3077 8.91008C23.5198 8.42487 24.7651 8.02725 26.034 7.72027C26.2588 7.66598 26.4528 7.52462 26.5733 7.3273C26.6939 7.12998 26.7311 6.89285 26.6768 6.66809C26.6225 6.44332 26.4811 6.24933 26.2838 6.12879C26.0865 6.00825 25.8494 5.97103 25.6246 6.02532C24.2742 6.35197 22.949 6.77518 21.6592 7.29168C21.4712 7.36705 21.3152 7.50555 21.2182 7.6834C21.1212 7.86124 21.0891 8.06732 21.1275 8.26624C21.1659 8.46516 21.2723 8.6445 21.4286 8.77346C21.5848 8.90242 21.7811 8.97294 21.9837 8.97292V8.97355Z" fill="#06D0D0"/>
<path d="M17.6758 11.3028C17.7736 11.2415 17.8582 11.1614 17.9248 11.0671C17.9913 10.9729 18.0385 10.8664 18.0636 10.7538C18.0888 10.6411 18.0913 10.5247 18.071 10.4111C18.0508 10.2975 18.0082 10.189 17.9457 10.092C17.8832 9.995 17.8021 9.91135 17.7071 9.84591C17.6121 9.78048 17.505 9.73455 17.3921 9.71081C17.2792 9.68706 17.1627 9.68596 17.0493 9.70757C16.936 9.72918 16.828 9.77307 16.7318 9.8367C15.5646 10.5888 14.4522 11.4226 13.4029 12.332C13.3164 12.407 13.2456 12.4983 13.1944 12.6007C13.1432 12.7031 13.1126 12.8146 13.1045 12.9289C13.0964 13.0431 13.1108 13.1578 13.1471 13.2664C13.1833 13.375 13.2405 13.4754 13.3155 13.5619C13.3906 13.6485 13.4819 13.7193 13.5843 13.7705C13.6867 13.8217 13.7982 13.8523 13.9124 13.8604C14.1431 13.8768 14.3708 13.8009 14.5455 13.6494C15.5322 12.7942 16.5783 12.01 17.6758 11.3028Z" fill="#06D0D0"/>
<path d="M42.9006 5.75478C42.7594 5.6458 42.589 5.58115 42.411 5.56899C42.2331 5.55683 42.0555 5.59772 41.9007 5.68648C41.746 5.77523 41.621 5.90788 41.5416 6.06765C41.4623 6.22741 41.432 6.40713 41.4548 6.58407C41.4775 6.76101 41.5522 6.92723 41.6694 7.06172C41.7867 7.19621 41.9411 7.29293 42.1133 7.33966C42.2854 7.38638 42.4676 7.38102 42.6367 7.32423C42.8058 7.26744 42.9543 7.16179 43.0634 7.02063C43.2094 6.83107 43.2742 6.59134 43.2437 6.35403C43.2132 6.11672 43.0897 5.90121 42.9005 5.75478H42.9006Z" fill="#06D0D0"/>
<path d="M45.1279 7.47526C44.9626 7.34764 44.7582 7.28128 44.5495 7.28748C44.3407 7.29367 44.1406 7.37205 43.9832 7.50925C43.8258 7.64645 43.7208 7.83399 43.6861 8.03991C43.6515 8.24583 43.6893 8.4574 43.7931 8.63857C43.897 8.81974 44.0604 8.9593 44.2556 9.03348C44.4508 9.10766 44.6657 9.11187 44.8636 9.04539C45.0616 8.9789 45.2304 8.84584 45.3412 8.66887C45.4521 8.49191 45.4981 8.28198 45.4716 8.07486C45.441 7.83729 45.3173 7.62158 45.1278 7.47513L45.1279 7.47526Z" fill="#06D0D0"/>
<path d="M47.3552 9.19557C47.1899 9.06805 46.9855 9.00177 46.7769 9.00804C46.5682 9.0143 46.3682 9.09271 46.2108 9.22991C46.0535 9.36711 45.9486 9.55462 45.914 9.76049C45.8794 9.96635 45.9173 10.1778 46.0211 10.3589C46.125 10.54 46.2884 10.6795 46.4836 10.7536C46.6787 10.8277 46.8935 10.8319 47.0914 10.7654C47.2893 10.6989 47.458 10.5658 47.5688 10.3889C47.6795 10.212 47.7256 10.0021 47.699 9.79504C47.684 9.67737 47.6459 9.56382 47.5869 9.46094C47.5279 9.35805 47.4491 9.26786 47.355 9.19557H47.3552Z" fill="#06D0D0"/>
<path d="M49.5832 10.9166C49.4419 10.8075 49.2715 10.7427 49.0934 10.7305C48.9153 10.7183 48.7376 10.7591 48.5827 10.8479C48.4279 10.9366 48.3028 11.0693 48.2234 11.2292C48.1439 11.389 48.1137 11.5688 48.1364 11.7459C48.1591 11.9229 48.2339 12.0892 48.3511 12.2238C48.4684 12.3584 48.623 12.4551 48.7952 12.5019C48.9675 12.5486 49.1497 12.5432 49.319 12.4864C49.4882 12.4296 49.6367 12.3238 49.7458 12.1826C49.892 11.9929 49.957 11.753 49.9264 11.5155C49.8957 11.278 49.7721 11.0624 49.5826 10.9161L49.5832 10.9166Z" fill="#06D0D0"/>
<path d="M38.9669 61.0286C37.6974 61.3351 36.4077 61.5505 35.1075 61.6731C34.8846 61.6943 34.6784 61.8005 34.5316 61.9696C34.3849 62.1387 34.3088 62.3578 34.3192 62.5815C34.3296 62.8052 34.4257 63.0163 34.5875 63.1711C34.7493 63.3259 34.9644 63.4125 35.1884 63.4129C35.2157 63.4129 35.2433 63.4117 35.2711 63.4091C36.6539 63.2783 38.0257 63.0493 39.3759 62.7236C39.4872 62.6967 39.5921 62.6481 39.6847 62.5807C39.7772 62.5132 39.8555 62.4282 39.9152 62.3305C39.9749 62.2328 40.0148 62.1243 40.0325 62.0111C40.0502 61.898 40.0455 61.7825 40.0186 61.6712C39.9917 61.5599 39.9432 61.455 39.8757 61.3625C39.8083 61.2699 39.7233 61.1916 39.6255 61.1319C39.5278 61.0722 39.4193 61.0324 39.3062 61.0146C39.193 60.9969 39.0775 61.0016 38.9662 61.0285L38.9669 61.0286Z" fill="#06D0D0"/>
<path d="M29.8929 61.6738C28.5927 61.5512 27.303 61.3358 26.0335 61.0295C25.8087 60.9752 25.5716 61.0124 25.3742 61.133C25.1769 61.2535 25.0355 61.4475 24.9812 61.6723C24.9269 61.8971 24.9641 62.1342 25.0846 62.3316C25.2052 62.5289 25.3992 62.6703 25.624 62.7246C26.9742 63.0504 28.346 63.2795 29.7289 63.4102C29.7567 63.4127 29.7841 63.414 29.8114 63.414C30.0343 63.412 30.2479 63.3247 30.4084 63.1701C30.5689 63.0155 30.6642 62.8053 30.6745 62.5827C30.6849 62.36 30.6096 62.1419 30.4642 61.973C30.3187 61.8042 30.1141 61.6974 29.8924 61.6747L29.8929 61.6738Z" fill="#06D0D0"/>
<path d="M55.6943 17.1062C55.5243 17.0778 55.3496 17.1004 55.1924 17.1712C55.0352 17.242 54.9025 17.3579 54.8111 17.5041C54.7197 17.6503 54.6738 17.8203 54.679 17.9927C54.6843 18.165 54.7405 18.332 54.8406 18.4724C55.5984 19.5354 56.2797 20.6509 56.8793 21.8106C56.9303 21.9149 57.0016 22.008 57.089 22.0844C57.1765 22.1608 57.2783 22.2189 57.3885 22.2554C57.4987 22.2919 57.6152 22.3061 57.7309 22.297C57.8467 22.2879 57.9594 22.2557 58.0626 22.2025C58.1658 22.1492 58.2573 22.0758 58.3317 21.9867C58.4061 21.8976 58.462 21.7945 58.4961 21.6835C58.5301 21.5725 58.5416 21.4558 58.53 21.3403C58.5183 21.2248 58.4837 21.1127 58.4281 21.0108C57.7907 19.7774 57.0663 18.591 56.2604 17.4605C56.1942 17.367 56.1101 17.2875 56.0129 17.2266C55.9157 17.1658 55.8074 17.1249 55.6943 17.1062Z" fill="#06D0D0"/>
<path d="M47.3232 57.4476C46.2258 58.154 45.0794 58.7811 43.8926 59.3241C43.7885 59.3717 43.6948 59.4393 43.6168 59.5232C43.5388 59.607 43.4781 59.7054 43.4381 59.8127C43.3981 59.92 43.3797 60.0341 43.3838 60.1486C43.388 60.263 43.4146 60.3755 43.4622 60.4797C43.5098 60.5838 43.5775 60.6775 43.6613 60.7555C43.7452 60.8335 43.8436 60.8942 43.9509 60.9342C44.0582 60.9742 44.1723 60.9926 44.2867 60.9885C44.4012 60.9843 44.5137 60.9577 44.6178 60.9101C45.8803 60.3323 47.1 59.6651 48.2676 58.9137C48.4595 58.7875 48.5938 58.5905 48.6413 58.3658C48.6888 58.141 48.6457 57.9066 48.5214 57.7134C48.397 57.5203 48.2015 57.384 47.9772 57.3342C47.7529 57.2844 47.5181 57.3252 47.3237 57.4476H47.3232Z" fill="#06D0D0"/>
<path d="M55.2788 51.1812C55.1889 51.1103 55.0859 51.0579 54.9757 51.0268C54.8654 50.9958 54.7502 50.9868 54.6365 51.0003C54.5228 51.0138 54.4129 51.0496 54.313 51.1056C54.2132 51.1616 54.1253 51.2367 54.0545 51.3267C53.246 52.3526 52.3659 53.3201 51.4207 54.2217C51.2544 54.3815 51.1582 54.6008 51.1531 54.8314C51.1481 55.062 51.2346 55.2852 51.3938 55.4521C51.553 55.6191 51.7718 55.7161 52.0024 55.7221C52.233 55.728 52.4566 55.6423 52.6241 55.4838C53.629 54.525 54.5648 53.4963 55.4243 52.4053C55.5671 52.2235 55.6319 51.9926 55.6047 51.7631C55.5774 51.5337 55.4602 51.3244 55.2788 51.1812Z" fill="#06D0D0"/>
<path d="M59.6452 30.4724C59.6756 30.6797 59.7793 30.8693 59.9375 31.0067C60.0956 31.1442 60.2978 31.2203 60.5074 31.2214C60.5488 31.2213 60.5902 31.2184 60.6313 31.2127C60.8601 31.1798 61.0665 31.0575 61.2052 30.8726C61.344 30.6877 61.4038 30.4554 61.3714 30.2265C61.1753 28.8512 60.881 27.4918 60.4907 26.1585C60.4257 25.9367 60.2752 25.7497 60.0723 25.6388C59.8694 25.5279 59.6307 25.5021 59.4089 25.5672C59.187 25.6322 59 25.7828 58.8891 25.9857C58.7782 26.1886 58.7525 26.4272 58.8175 26.6491C59.1843 27.9022 59.4609 29.1799 59.6452 30.4724Z" fill="#06D0D0"/>
<path d="M59.5291 42.8061C59.3105 42.7305 59.071 42.7449 58.863 42.8459C58.655 42.947 58.4957 43.1265 58.42 43.345C57.9926 44.5795 57.4771 45.7817 56.8777 46.9424C56.8213 47.0445 56.786 47.1568 56.7738 47.2727C56.7616 47.3886 56.7727 47.5058 56.8066 47.6173C56.8404 47.7288 56.8963 47.8324 56.9709 47.922C57.0455 48.0116 57.1373 48.0853 57.2408 48.1387C57.3444 48.1922 57.4576 48.2244 57.5738 48.2333C57.69 48.2423 57.8069 48.2279 57.9174 48.1909C58.0279 48.154 58.1299 48.0952 58.2174 48.0181C58.3048 47.9411 58.3759 47.8473 58.4265 47.7422C59.0642 46.5072 59.6127 45.228 60.0675 43.9145C60.1049 43.8063 60.1207 43.6918 60.1139 43.5775C60.1071 43.4632 60.0778 43.3514 60.0278 43.2484C59.9777 43.1455 59.9079 43.0533 59.8223 42.9774C59.7366 42.9014 59.6369 42.843 59.5287 42.8056L59.5291 42.8061Z" fill="#06D0D0"/>
<path d="M4.54974 29.8753C4.6622 29.8968 4.77781 29.8961 4.88996 29.8729C5.00211 29.8498 5.1086 29.8048 5.20336 29.7406C5.29811 29.6763 5.37927 29.5939 5.44219 29.4983C5.50512 29.4026 5.54857 29.2955 5.57007 29.183C5.81607 27.9006 6.15366 26.6375 6.58023 25.4033C6.65582 25.1848 6.64151 24.9452 6.54044 24.7372C6.43938 24.5293 6.25984 24.37 6.04132 24.2944C5.8228 24.2188 5.5832 24.2331 5.37524 24.3342C5.16727 24.4352 5.00797 24.6148 4.93238 24.8333C4.47845 26.1463 4.11923 27.4902 3.85747 28.8546C3.81402 29.0817 3.86253 29.3167 3.99235 29.5081C4.12217 29.6994 4.32266 29.8313 4.54974 29.8749V29.8753Z" fill="#06D0D0"/>
<path d="M21.1076 59.3244C19.9198 58.7806 18.7723 58.1527 17.6738 57.4455C17.4794 57.3203 17.2432 57.2775 17.0172 57.3264C16.7912 57.3753 16.5939 57.512 16.4687 57.7064C16.3435 57.9008 16.3007 58.137 16.3496 58.363C16.3985 58.5889 16.5352 58.7862 16.7296 58.9114C17.8981 59.6636 19.1187 60.3314 20.3822 60.9098C20.4957 60.9622 20.6193 60.9893 20.7444 60.9892C20.9434 60.9892 21.1365 60.9212 21.2916 60.7964C21.4466 60.6716 21.5543 60.4975 21.5967 60.303C21.6392 60.1085 21.6138 59.9054 21.5248 59.7273C21.4358 59.5493 21.2886 59.407 21.1076 59.3242V59.3244Z" fill="#06D0D0"/>
<path d="M5.35488 38.2779C5.17132 36.9846 5.07926 35.6799 5.0794 34.3737C5.0807 34.2583 5.05909 34.1438 5.01582 34.0369C4.97256 33.9299 4.90849 33.8326 4.82733 33.7506C4.74617 33.6685 4.64954 33.6034 4.54304 33.559C4.43654 33.5146 4.32229 33.4918 4.2069 33.4919C4.09152 33.492 3.9773 33.515 3.87086 33.5595C3.76442 33.6041 3.66789 33.6693 3.58685 33.7515C3.50582 33.8336 3.44189 33.931 3.39878 34.038C3.35566 34.1451 3.33422 34.2596 3.33569 34.375C3.33564 35.7631 3.43356 37.1495 3.6287 38.5239C3.65906 38.7312 3.76272 38.9208 3.92088 39.0582C4.07903 39.1956 4.2812 39.2718 4.49071 39.2729C4.53221 39.2728 4.57365 39.2699 4.61475 39.2642C4.84354 39.2312 5.04993 39.1089 5.18868 38.924C5.32742 38.7391 5.38719 38.5068 5.35488 38.2779Z" fill="#06D0D0"/>
<path d="M60.7925 33.5029C60.5614 33.5032 60.3398 33.5951 60.1763 33.7585C60.0129 33.922 59.9209 34.1435 59.9206 34.3747C59.9206 35.6809 59.8286 36.9854 59.6451 38.2786C59.6125 38.5075 59.6722 38.74 59.811 38.925C59.9498 39.1099 60.1563 39.2322 60.3853 39.2648C60.4263 39.2705 60.4677 39.2735 60.5092 39.2736C60.7187 39.2725 60.9209 39.1963 61.0791 39.0589C61.2373 38.9214 61.3409 38.7319 61.3713 38.5245C61.5664 37.1499 61.6643 35.7631 61.6643 34.3747C61.664 34.1436 61.5721 33.922 61.4087 33.7585C61.2452 33.5951 61.0236 33.5032 60.7925 33.5029Z" fill="#06D0D0"/>
<path d="M6.5796 43.3442C6.50399 43.1257 6.34468 42.9462 6.1367 42.8451C5.92872 42.7441 5.68912 42.7298 5.4706 42.8054C5.25208 42.881 5.07255 43.0403 4.97149 43.2483C4.87044 43.4562 4.85614 43.6959 4.93175 43.9144C5.38637 45.2271 5.93443 46.5057 6.57173 47.7401C6.6227 47.8444 6.69401 47.9375 6.78145 48.0139C6.86889 48.0903 6.97071 48.1485 7.08094 48.185C7.19116 48.2215 7.30757 48.2356 7.42332 48.2265C7.53908 48.2174 7.65185 48.1853 7.75502 48.132C7.85818 48.0787 7.94967 48.0054 8.02411 47.9162C8.09854 47.8271 8.15442 47.724 8.18847 47.613C8.22252 47.502 8.23406 47.3853 8.22239 47.2698C8.21073 47.1543 8.17611 47.0423 8.12056 46.9403C7.52173 45.7799 7.00676 44.5782 6.5796 43.3442Z" fill="#06D0D0"/>
<path d="M10.9434 51.3242C10.8725 51.2342 10.7846 51.1591 10.6847 51.1031C10.5849 51.0471 10.4749 51.0114 10.3612 50.9979C10.2475 50.9844 10.1323 50.9934 10.022 51.0244C9.91181 51.0555 9.80878 51.1079 9.71883 51.1788C9.62888 51.2496 9.55376 51.3375 9.49777 51.4374C9.44178 51.5373 9.40602 51.6472 9.39251 51.7609C9.37901 51.8746 9.38803 51.9899 9.41907 52.1001C9.45011 52.2103 9.50255 52.3133 9.57341 52.4033C10.4327 53.4941 11.3682 54.5226 12.3729 55.4813C12.5407 55.6378 12.7636 55.7219 12.993 55.7152C13.2225 55.7085 13.44 55.6116 13.5985 55.4454C13.7569 55.2793 13.8435 55.0574 13.8393 54.8279C13.8352 54.5984 13.7407 54.3798 13.5764 54.2195C12.6314 53.3178 11.7516 52.3502 10.9434 51.3242Z" fill="#06D0D0"/>
<path d="M10.8 16.1992C10.6182 16.0565 10.3873 15.9917 10.1578 16.019C9.9283 16.0462 9.71897 16.1634 9.57569 16.3447C8.71641 17.4363 7.9358 18.5877 7.23976 19.79C7.16318 19.9225 7.1228 20.0728 7.12269 20.2258C7.12257 20.3788 7.16273 20.5292 7.23911 20.6618C7.3155 20.7944 7.42543 20.9046 7.55786 20.9812C7.6903 21.0579 7.84057 21.0984 7.9936 21.0986C8.14657 21.0983 8.29679 21.0579 8.42931 20.9815C8.56184 20.9051 8.67205 20.7954 8.74897 20.6631C9.40329 19.5326 10.1372 18.4501 10.9453 17.4238C11.088 17.242 11.1529 17.011 11.1257 16.7815C11.0985 16.552 10.9814 16.3426 10.8 16.1992Z" fill="#06D0D0"/>
<path d="M51.8468 20.7125C52.0948 20.7802 52.3574 20.7726 52.6012 20.6907C52.8449 20.6087 53.0588 20.4562 53.2156 20.2524C53.2696 20.1826 53.3111 20.1038 53.3381 20.0197L54.6037 16.0787L58.1048 13.8487C58.1792 13.8014 58.2447 13.7416 58.2985 13.6718C58.4493 13.4765 58.5413 13.2422 58.5638 12.9965C58.5864 12.7508 58.5386 12.5038 58.426 12.2842C58.3134 12.0647 58.1406 11.8817 57.9279 11.7566C57.7152 11.6316 57.4712 11.5697 57.2246 11.5781L53.1553 11.034L51.119 9.46169L53.9157 5.84073C54.0146 5.71283 54.0873 5.5667 54.1296 5.4107C54.172 5.25471 54.1832 5.09189 54.1626 4.93156C54.1421 4.77123 54.0901 4.61652 54.0097 4.47627C53.9293 4.33602 53.8221 4.21298 53.6942 4.11417L52.8182 3.43751C52.5068 3.198 52.1223 3.07339 51.7296 3.08477C51.3369 3.09615 50.9602 3.24282 50.6632 3.49997L47.2468 6.47067L41.8453 2.29849C41.193 1.79654 40.3682 1.57391 39.5519 1.67949C38.7356 1.78506 37.9946 2.2102 37.4915 2.86159C36.9883 3.51297 36.7642 4.33738 36.8683 5.15384C36.9724 5.9703 37.3962 6.71209 38.0467 7.21639L43.4481 11.3885L41.4375 15.4449C41.2638 15.7971 41.2171 16.1985 41.3052 16.5813C41.3934 16.964 41.611 17.3045 41.9213 17.5453L42.7973 18.2223C43.0117 18.3889 43.2756 18.4793 43.5471 18.4792C43.6004 18.4791 43.6536 18.4757 43.7064 18.4689C43.8668 18.4487 44.0216 18.3969 44.1619 18.3166C44.3022 18.2362 44.4251 18.1288 44.5236 18.0006L47.3205 14.3795L49.357 15.9524L50.9185 19.7436C50.9701 19.9745 51.0839 20.1868 51.2475 20.3576C51.4111 20.5283 51.6184 20.6511 51.8468 20.7125ZM50.688 15.1836C50.6371 15.0603 50.5548 14.9524 50.4493 14.8709L46.5352 11.8482C46.456 11.787 46.3655 11.742 46.269 11.7159C46.1724 11.6897 46.0716 11.6827 45.9724 11.6955C45.8731 11.7083 45.7774 11.7404 45.6906 11.7902C45.6038 11.84 45.5276 11.9063 45.4665 11.9855C45.4053 12.0647 45.3604 12.1552 45.3342 12.2517C45.308 12.3483 45.3011 12.4491 45.3138 12.5483C45.3266 12.6475 45.3588 12.7433 45.4085 12.8301C45.4583 12.9169 45.5247 12.9931 45.6039 13.0542L46.1147 13.4488L43.4967 16.8384L42.852 16.3404C42.8197 16.3155 42.797 16.2802 42.7878 16.2404C42.7785 16.2007 42.7833 16.159 42.8012 16.1224L45.0903 11.5058C45.1685 11.348 45.1897 11.168 45.1501 10.9965C45.1106 10.8249 45.0128 10.6723 44.8735 10.5647L38.9779 6.01072C38.6455 5.75397 38.4287 5.37568 38.3752 4.95907C38.3217 4.54246 38.4358 4.12166 38.6926 3.78923C38.9493 3.45681 39.3276 3.23999 39.7442 3.18648C40.1608 3.13297 40.5817 3.24715 40.9141 3.5039L46.8097 8.05771C46.949 8.16536 47.1214 8.2214 47.2974 8.21628C47.4734 8.21116 47.6423 8.14522 47.7751 8.02966L51.6626 4.6494C51.6934 4.62259 51.7326 4.60729 51.7735 4.60611C51.8144 4.60493 51.8544 4.61794 51.8868 4.64293L52.5313 5.14071L49.9133 8.53036L49.4024 8.13579C49.3232 8.07465 49.2328 8.0297 49.1362 8.00351C49.0396 7.97733 48.9389 7.97042 48.8396 7.98318C48.7404 7.99594 48.6447 8.02812 48.5579 8.07789C48.4711 8.12765 48.3949 8.19403 48.3338 8.27322C48.2726 8.35241 48.2277 8.44286 48.2015 8.53943C48.1753 8.63599 48.1684 8.73676 48.1812 8.83599C48.1939 8.93522 48.2261 9.03097 48.2759 9.11776C48.3257 9.20456 48.392 9.2807 48.4712 9.34184L52.3853 12.3652C52.4914 12.4472 52.6172 12.4998 52.75 12.5176L56.5608 13.0267L53.5533 14.9423C53.4034 15.0377 53.2917 15.1825 53.2373 15.3517L52.1506 18.7359L50.688 15.1836Z" fill="#06D0D0"/>
<path d="M32.5 16.0988C22.4225 16.0988 14.2238 24.2974 14.2238 34.3748C14.2238 44.4522 22.4225 52.651 32.5 52.651C42.5775 52.651 50.7762 44.4524 50.7762 34.3748C50.7762 24.2973 42.5775 16.0988 32.5 16.0988ZM15.7473 34.3748C15.7473 25.3533 22.9157 17.9758 31.8556 17.6358L32.6352 22.3764C32.6703 22.5906 32.6425 22.8105 32.5552 23.0093C32.4678 23.2081 32.3247 23.3773 32.1431 23.4963L29.2012 25.4227C28.7623 25.7089 28.4185 26.1194 28.2139 26.6019C28.0093 27.0843 27.9532 27.6168 28.0526 28.1313L28.448 30.2021C28.5263 30.6078 28.6982 30.9896 28.95 31.3171C29.2017 31.6447 29.5265 31.9089 29.8983 32.0889L31.9653 33.0841C32.1858 33.1909 32.3653 33.3667 32.4767 33.5849C32.5881 33.8031 32.6251 34.0516 32.5823 34.2928L31.8292 38.4753C31.7981 38.6467 31.7277 38.8086 31.6235 38.9482C31.5074 39.1035 31.3529 39.2261 31.1752 39.3038C30.9975 39.3816 30.8027 39.4119 30.6098 39.3919C30.4169 39.3718 30.2325 39.3021 30.0746 39.1894C29.9167 39.0767 29.7908 38.925 29.7091 38.7491L28.9514 37.1187C28.7382 36.6623 28.3994 36.276 27.9747 36.005C27.55 35.734 27.0569 35.5896 26.5531 35.5885H23.4899C22.946 35.5877 22.4152 35.7553 21.9705 36.0685L19.9107 37.5146C19.781 37.6058 19.6335 37.6684 19.4778 37.6983C19.3221 37.7281 19.1619 37.7246 19.0077 37.6879L15.9471 36.9614C15.8139 36.1056 15.7471 35.2409 15.7473 34.3748ZM41.0894 43.4949L41.6264 48.4165C38.9129 50.189 35.7411 51.1312 32.5 51.1276C24.7245 51.1276 18.1698 45.8026 16.2896 38.6081L18.6558 39.1698C19.0196 39.2561 19.3975 39.2643 19.7647 39.1939C20.1319 39.1234 20.48 38.976 20.786 38.7613L22.8457 37.3154C23.0343 37.1828 23.2593 37.1118 23.4899 37.1123H26.5531C26.7667 37.1128 26.9758 37.174 27.1558 37.2889C27.3359 37.4038 27.4795 37.5675 27.5699 37.7611L28.3274 39.3915C28.5185 39.8077 28.8151 40.1666 29.1879 40.4326C29.5607 40.6985 29.9966 40.8622 30.4522 40.9075C30.5456 40.9172 30.6394 40.922 30.7333 40.9221C31.1436 40.9227 31.5482 40.8271 31.9147 40.6428C32.2813 40.4585 32.5994 40.1908 32.8435 39.8611C33.0893 39.5318 33.2553 39.15 33.3285 38.7457L34.0816 34.5632C34.1827 33.9943 34.0953 33.4079 33.8326 32.8932C33.5699 32.3785 33.1463 31.9637 32.6262 31.7119L30.5593 30.7167C30.4016 30.6404 30.264 30.5283 30.1572 30.3895C30.0505 30.2507 29.9776 30.0888 29.9444 29.9169L29.549 27.8459C29.5068 27.6278 29.5306 27.402 29.6173 27.1975C29.7041 26.993 29.8498 26.819 30.036 26.6977L32.9777 24.7713C33.406 24.4905 33.7437 24.0915 33.9497 23.6226C34.1557 23.1537 34.2213 22.6351 34.1385 22.1297L33.4014 17.6465C35.712 17.771 37.9717 18.3734 40.0377 19.4158C42.1036 20.4581 43.9309 21.9176 45.404 23.7021L44.1091 24.6243C43.3671 25.1532 42.8361 25.9274 42.6098 26.8101L42.1985 28.4169C42.0126 29.1432 42.0424 29.908 42.2843 30.6176C42.5261 31.3272 42.9695 31.951 43.5603 32.4126C43.9073 32.6855 44.1703 33.0507 44.319 33.4664C44.4676 33.8821 44.4959 34.3313 44.4006 34.7623L43.5694 38.4693C43.4721 38.9048 43.2518 39.3031 42.9347 39.617L42.2099 40.3346C41.7961 40.7423 41.4803 41.2385 41.2862 41.7859C41.0921 42.3333 41.0248 42.9177 41.0894 43.4949ZM49.2525 34.3748C49.2527 36.8683 48.6955 39.3303 47.6216 41.5807C46.5477 43.8311 44.9843 45.8129 43.0457 47.3812L42.6038 43.3291C42.5649 42.98 42.6056 42.6266 42.723 42.2955C42.8404 41.9644 43.0314 41.6643 43.2816 41.4177L44.0063 40.7C44.5305 40.1813 44.8948 39.5229 45.0558 38.8032L45.8869 35.0962C46.0445 34.3838 45.9978 33.6414 45.7521 32.9545C45.5064 32.2675 45.0718 31.6638 44.4982 31.2129C44.1408 30.9336 43.8725 30.5562 43.7261 30.1268C43.5798 29.6974 43.5617 29.2347 43.6742 28.7952L44.0855 27.1884C44.2223 26.6543 44.5437 26.1859 44.9927 25.8659L46.3216 24.9195C48.2342 27.7014 49.2564 30.9989 49.2527 34.3748H49.2525Z" fill="#06D0D0"/>
</svg>
