<svg width="49" height="49" viewBox="0 0 49 49" fill="none" xmlns="http://www.w3.org/2000/svg">
<path d="M17.3543 40.8331H5.10425C3.41579 40.8331 2.04175 39.4591 2.04175 37.7706V15.3123C2.04175 14.7488 2.49908 14.2914 3.06258 14.2914H37.771C38.3344 14.2914 38.7918 14.7488 38.7918 15.3123V21.5598C38.7918 22.1233 38.3344 22.5806 37.771 22.5806C37.2074 22.5806 36.7501 22.1233 36.7501 21.5598V16.3331H4.08342V37.7706C4.08342 38.3341 4.54279 38.7915 5.10425 38.7915H17.3543C17.9178 38.7915 18.3751 39.2488 18.3751 39.8123C18.3751 40.3758 17.9178 40.8331 17.3543 40.8331Z" fill="#06D0D0"/>
<path d="M25.5209 22.4582H15.3126C14.7491 22.4582 14.2917 22.0008 14.2917 21.4373C14.2917 20.8738 14.7491 20.4165 15.3126 20.4165H25.5209C26.0844 20.4165 26.5418 20.8738 26.5418 21.4373C26.5418 22.0008 26.0844 22.4582 25.5209 22.4582Z" fill="#06D0D0"/>
<path d="M39.8125 16.3333H1.02083C0.457334 16.3333 0 15.876 0 15.3125V7.14583C0 6.58233 0.457334 6.125 1.02083 6.125H39.8125C40.376 6.125 40.8334 6.58233 40.8334 7.14583V15.3125C40.8334 15.876 40.376 16.3333 39.8125 16.3333ZM2.04167 14.2917H38.7917V8.16667H2.04167V14.2917Z" fill="#06D0D0"/>
<path d="M39.8132 8.16668C39.5519 8.16668 39.2905 8.06663 39.0905 7.86859L33.2656 2.04167H7.56913L1.74425 7.86859C1.34613 8.26672 0.698917 8.26672 0.300791 7.86859C-0.0973341 7.47047 -0.0973341 6.82326 0.300791 6.42513L6.4258 0.300125C6.61567 0.108208 6.87496 0 7.14651 0H33.6882C33.9597 0 34.219 0.108208 34.4109 0.298084L40.536 6.42309C40.9341 6.82122 40.9341 7.46842 40.536 7.86655C40.3359 8.06663 40.0745 8.16668 39.8132 8.16668Z" fill="#06D0D0"/>
<path d="M29.3206 49C29.2655 49 29.2063 48.998 29.1512 48.9939C28.5203 48.9449 27.9445 48.6223 27.5709 48.1119L25.1046 44.7289C25.0556 44.6615 24.9902 44.5982 24.9188 44.5451L21.3009 41.8807C20.7905 41.503 20.472 40.9252 20.423 40.2944C20.3761 39.6635 20.6047 39.0449 21.0539 38.5977C21.7174 37.9321 22.6974 37.7484 23.5611 38.1261L26.2152 39.2858L31.7277 33.3445L32.2055 32.1318L31.7277 33.0342L22.0829 27.93C21.4357 27.54 21.0417 26.9337 20.9579 26.2395C20.8722 25.5453 21.107 24.8614 21.6031 24.3653C22.089 23.8773 22.7893 23.6772 23.461 23.8201L37.4873 26.7908C37.571 26.8091 37.6506 26.7867 37.7017 26.7275L42.7323 21.3824C43.2938 20.7862 44.233 20.4371 45.313 20.4207C46.5115 20.3575 47.4609 20.7535 48.0631 21.3558C48.6654 21.9581 49.0166 22.9851 49.0003 24.106C48.9839 25.186 48.6328 26.1272 48.0366 26.6887L42.6793 31.7398C42.618 31.7969 42.5935 31.8766 42.6119 31.9521L45.8377 46.1458C45.999 46.8256 45.7969 47.5341 45.3008 48.0343C44.8087 48.5284 44.1391 48.7714 43.4347 48.6815C42.7426 48.5999 42.1362 48.214 41.7728 47.6199L36.4032 37.6912L35.3987 36.946L36.0949 37.6933L30.1659 43.2037L31.3255 45.862C31.7012 46.7236 31.5154 47.7056 30.8539 48.3671C30.4435 48.7734 29.8943 49 29.3206 49ZM36.2398 35.5924C36.3419 35.5924 36.446 35.5985 36.5481 35.6128C37.2219 35.7047 37.8119 36.0885 38.1692 36.6683L43.5388 46.597L44.578 47.3095L43.8553 46.5888L40.6253 32.4135C40.4375 31.6336 40.6907 30.7986 41.2848 30.2453L46.6381 25.2003C46.7851 25.0594 46.9504 24.647 46.9586 24.0733C46.9668 23.4669 46.7953 22.9728 46.6197 22.7973C46.4441 22.6217 45.9337 22.4318 45.3436 22.4583C44.772 22.4665 44.3616 22.6298 44.2207 22.7789L39.1921 28.1199C38.651 28.6997 37.8303 28.9508 37.0565 28.7814L23.0302 25.8108L22.5607 27.0215L23.0384 26.119L32.6832 31.2232C33.3182 31.605 33.7061 32.1951 33.8041 32.8708C33.9001 33.5487 33.6878 34.2245 33.2243 34.7267L27.2177 41.1988C26.9217 41.5173 26.4602 41.6153 26.0621 41.4397L22.7424 39.9901C22.6648 39.9554 22.5647 39.9718 22.4994 40.0351L26.1356 42.8954C26.3724 43.071 26.5807 43.2793 26.7542 43.5161L29.2247 46.9032C29.4758 46.8542 29.4942 46.7542 29.4554 46.6705L28.0078 43.3507C27.8343 42.9526 27.9302 42.4891 28.2467 42.1951L34.7045 36.1926C35.1271 35.8047 35.6743 35.5924 36.2398 35.5924ZM47.3384 25.9435H47.3588H47.3384Z" fill="#06D0D0"/>
</svg>
